<svg xmlns="http://www.w3.org/2000/svg" width="1074" height="566"><g xmlns="http://www.w3.org/2000/svg" fill="none" stroke="none" stroke-width="none" stroke-linecap="butt" stroke-linejoin="miter" stroke-miterlimit="10" stroke-dasharray="" stroke-dashoffset="0" font-family="sans-serif" font-weight="normal" font-size="12" text-anchor="start" mix-blend-mode="normal"><path d="M-86.60254,-50l86.60254,-50l86.60254,50l0,100l-86.60254,50l-86.60254,-50z M86.60254,50l86.60254,50l86.60254,-50l0,-100l-86.60254,-50l-86.60254,50z M259.80762,50l86.60254,50l86.60254,-50l0,-100l-86.60254,-50l-86.60254,50z M433.0127,50l86.60254,50l86.60254,-50l0,-100l-86.60254,-50l-86.60254,50z M606.21778,50l86.60254,50l86.60254,-50l0,-100l-86.60254,-50l-86.60254,50z M779.42286,50l86.60254,50l86.60254,-50l0,-100l-86.60254,-50l-86.60254,50z M952.62794,50l86.60254,50l86.60254,-50l0,-100l-86.60254,-50l-86.60254,50z M1125.83302,50l86.60254,50l86.60254,-50l0,-100l-86.60254,-50l-86.60254,50z M0,200l86.60254,50l86.60254,-50l0,-100l-86.60254,-50l-86.60254,50z M173.20508,200l86.60254,50l86.60254,-50l0,-100l-86.60254,-50l-86.60254,50z M346.41016,200l86.60254,50l86.60254,-50l0,-100l-86.60254,-50l-86.60254,50z M519.61524,200l86.60254,50l86.60254,-50l0,-100l-86.60254,-50l-86.60254,50z M692.82032,200l86.60254,50l86.60254,-50l0,-100l-86.60254,-50l-86.60254,50z M866.0254,200l86.60254,50l86.60254,-50l0,-100l-86.60254,-50l-86.60254,50z M1039.23048,200l86.60254,50l86.60254,-50l0,-100l-86.60254,-50l-86.60254,50z M1212.43557,200l86.60254,50l86.60254,-50l0,-100l-86.60254,-50l-86.60254,50z M-86.60254,350l86.60254,50l86.60254,-50l0,-100l-86.60254,-50l-86.60254,50z M86.60254,350l86.60254,50l86.60254,-50l0,-100l-86.60254,-50l-86.60254,50z M259.80762,350l86.60254,50l86.60254,-50l0,-100l-86.60254,-50l-86.60254,50z M433.0127,350l86.60254,50l86.60254,-50l0,-100l-86.60254,-50l-86.60254,50z M606.21778,350l86.60254,50l86.60254,-50l0,-100l-86.60254,-50l-86.60254,50z M779.42286,350l86.60254,50l86.60254,-50l0,-100l-86.60254,-50l-86.60254,50z M952.62794,350l86.60254,50l86.60254,-50l0,-100l-86.60254,-50l-86.60254,50z M1125.83302,350l86.60254,50l86.60254,-50l0,-100l-86.60254,-50l-86.60254,50z M0,500l86.60254,50l86.60254,-50l0,-100l-86.60254,-50l-86.60254,50z M173.20508,500l86.60254,50l86.60254,-50l0,-100l-86.60254,-50l-86.60254,50z M346.41016,500l86.60254,50l86.60254,-50l0,-100l-86.60254,-50l-86.60254,50z M519.61524,500l86.60254,50l86.60254,-50l0,-100l-86.60254,-50l-86.60254,50z M692.82032,500l86.60254,50l86.60254,-50l0,-100l-86.60254,-50l-86.60254,50z M866.0254,500l86.60254,50l86.60254,-50l0,-100l-86.60254,-50l-86.60254,50z M1039.23048,500l86.60254,50l86.60254,-50l0,-100l-86.60254,-50l-86.60254,50z M1212.43557,500l86.60254,50l86.60254,-50l0,-100l-86.60254,-50l-86.60254,50z M-86.60254,650l86.60254,50l86.60254,-50l0,-100l-86.60254,-50l-86.60254,50z M86.60254,650l86.60254,50l86.60254,-50l0,-100l-86.60254,-50l-86.60254,50z M259.80762,650l86.60254,50l86.60254,-50l0,-100l-86.60254,-50l-86.60254,50z M433.0127,650l86.60254,50l86.60254,-50l0,-100l-86.60254,-50l-86.60254,50z M606.21778,650l86.60254,50l86.60254,-50l0,-100l-86.60254,-50l-86.60254,50z M779.42286,650l86.60254,50l86.60254,-50l0,-100l-86.60254,-50l-86.60254,50z M952.62794,650l86.60254,50l86.60254,-50l0,-100l-86.60254,-50l-86.60254,50z M1125.83302,650l86.60254,50l86.60254,-50l0,-100l-86.60254,-50l-86.60254,50z" fill="#ee0346" stroke-width="1"/><path d="M0,-54.36203l43.30127,-20.63797l3.77763,47.81898l39.52364,27.18102l-39.52364,27.18102l-3.77763,47.81898l-43.30127,-20.63797l-43.30127,20.63797l-3.77763,-47.81898l-39.52364,-27.18102l39.52364,-27.18102l3.77763,-47.81898z M129.90381,-75l-3.77763,47.81898l-39.52364,27.18102l39.52364,27.18102l3.77763,47.81898l43.30127,-20.63797l43.30127,20.63797l3.77763,-47.81898l39.52364,-27.18102l-39.52364,-27.18102l-3.77763,-47.81898l-43.30127,20.63797z M303.10889,-75l-3.77763,47.81898l-39.52364,27.18102l39.52364,27.18102l3.77763,47.81898l43.30127,-20.63797l43.30127,20.63797l3.77763,-47.81898l39.52364,-27.18102l-39.52364,-27.18102l-3.77763,-47.81898l-43.30127,20.63797z M476.31397,-75l-3.77763,47.81898l-39.52364,27.18102l39.52364,27.18102l3.77763,47.81898l43.30127,-20.63797l43.30127,20.63797l3.77763,-47.81898l39.52364,-27.18102l-39.52364,-27.18102l-3.77763,-47.81898l-43.30127,20.63797z M649.51905,-75l-3.77763,47.81898l-39.52364,27.18102l39.52364,27.18102l3.77763,47.81898l43.30127,-20.63797l43.30127,20.63797l3.77763,-47.81898l39.52364,-27.18102l-39.52364,-27.18102l-3.77763,-47.81898l-43.30127,20.63797z M822.72413,-75l-3.77763,47.81898l-39.52364,27.18102l39.52364,27.18102l3.77763,47.81898l43.30127,-20.63797l43.30127,20.63797l3.77763,-47.81898l39.52364,-27.18102l-39.52364,-27.18102l-3.77763,-47.81898l-43.30127,20.63797z M995.92921,-75l-3.77763,47.81898l-39.52364,27.18102l39.52364,27.18102l3.77763,47.81898l43.30127,-20.63797l43.30127,20.63797l3.77763,-47.81898l39.52364,-27.18102l-39.52364,-27.18102l-3.77763,-47.81898l-43.30127,20.63797z M1169.1343,-75l-3.77763,47.81898l-39.52364,27.18102l39.52364,27.18102l3.77763,47.81898l43.30127,-20.63797l43.30127,20.63797l3.77763,-47.81898l39.52364,-27.18102l-39.52364,-27.18102l-3.77763,-47.81898l-43.30127,20.63797z M43.30127,75l-3.77763,47.81898l-39.52364,27.18102l39.52364,27.18102l3.77763,47.81898l43.30127,-20.63797l43.30127,20.63797l3.77763,-47.81898l39.52364,-27.18102l-39.52364,-27.18102l-3.77763,-47.81898l-43.30127,20.63797z M216.50635,75l-3.77763,47.81898l-39.52364,27.18102l39.52364,27.18102l3.77763,47.81898l43.30127,-20.63797l43.30127,20.63797l3.77763,-47.81898l39.52364,-27.18102l-39.52364,-27.18102l-3.77763,-47.81898l-43.30127,20.63797z M389.71143,75l-3.77763,47.81898l-39.52364,27.18102l39.52364,27.18102l3.77763,47.81898l43.30127,-20.63797l43.30127,20.63797l3.77763,-47.81898l39.52364,-27.18102l-39.52364,-27.18102l-3.77763,-47.81898l-43.30127,20.63797z M562.91651,75l-3.77763,47.81898l-39.52364,27.18102l39.52364,27.18102l3.77763,47.81898l43.30127,-20.63797l43.30127,20.63797l3.77763,-47.81898l39.52364,-27.18102l-39.52364,-27.18102l-3.77763,-47.81898l-43.30127,20.63797z M736.12159,75l-3.77763,47.81898l-39.52364,27.18102l39.52364,27.18102l3.77763,47.81898l43.30127,-20.63797l43.30127,20.63797l3.77763,-47.81898l39.52364,-27.18102l-39.52364,-27.18102l-3.77763,-47.81898l-43.30127,20.63797z M909.32667,75l-3.77763,47.81898l-39.52364,27.18102l39.52364,27.18102l3.77763,47.81898l43.30127,-20.63797l43.30127,20.63797l3.77763,-47.81898l39.52364,-27.18102l-39.52364,-27.18102l-3.77763,-47.81898l-43.30127,20.63797z M1082.53175,75l-3.77763,47.81898l-39.52364,27.18102l39.52364,27.18102l3.77763,47.81898l43.30127,-20.63797l43.30127,20.63797l3.77763,-47.81898l39.52364,-27.18102l-39.52364,-27.18102l-3.77763,-47.81898l-43.30127,20.63797z M1255.73684,75l-3.77763,47.81898l-39.52364,27.18102l39.52364,27.18102l3.77763,47.81898l43.30127,-20.63797l43.30127,20.63797l3.77763,-47.81898l39.52364,-27.18102l-39.52364,-27.18102l-3.77763,-47.81898l-43.30127,20.63797z M-43.30127,225l-3.77763,47.81898l-39.52364,27.18102l39.52364,27.18102l3.77763,47.81898l43.30127,-20.63797l43.30127,20.63797l3.77763,-47.81898l39.52364,-27.18102l-39.52364,-27.18102l-3.77763,-47.81898l-43.30127,20.63797z M129.90381,225l-3.77763,47.81898l-39.52364,27.18102l39.52364,27.18102l3.77763,47.81898l43.30127,-20.63797l43.30127,20.63797l3.77763,-47.81898l39.52364,-27.18102l-39.52364,-27.18102l-3.77763,-47.81898l-43.30127,20.63797z M303.10889,225l-3.77763,47.81898l-39.52364,27.18102l39.52364,27.18102l3.77763,47.81898l43.30127,-20.63797l43.30127,20.63797l3.77763,-47.81898l39.52364,-27.18102l-39.52364,-27.18102l-3.77763,-47.81898l-43.30127,20.63797z M476.31397,225l-3.77763,47.81898l-39.52364,27.18102l39.52364,27.18102l3.77763,47.81898l43.30127,-20.63797l43.30127,20.63797l3.77763,-47.81898l39.52364,-27.18102l-39.52364,-27.18102l-3.77763,-47.81898l-43.30127,20.63797z M649.51905,225l-3.77763,47.81898l-39.52364,27.18102l39.52364,27.18102l3.77763,47.81898l43.30127,-20.63797l43.30127,20.63797l3.77763,-47.81898l39.52364,-27.18102l-39.52364,-27.18102l-3.77763,-47.81898l-43.30127,20.63797z M822.72413,225l-3.77763,47.81898l-39.52364,27.18102l39.52364,27.18102l3.77763,47.81898l43.30127,-20.63797l43.30127,20.63797l3.77763,-47.81898l39.52364,-27.18102l-39.52364,-27.18102l-3.77763,-47.81898l-43.30127,20.63797z M995.92921,225l-3.77763,47.81898l-39.52364,27.18102l39.52364,27.18102l3.77763,47.81898l43.30127,-20.63797l43.30127,20.63797l3.77763,-47.81898l39.52364,-27.18102l-39.52364,-27.18102l-3.77763,-47.81898l-43.30127,20.63797z M1169.1343,225l-3.77763,47.81898l-39.52364,27.18102l39.52364,27.18102l3.77763,47.81898l43.30127,-20.63797l43.30127,20.63797l3.77763,-47.81898l39.52364,-27.18102l-39.52364,-27.18102l-3.77763,-47.81898l-43.30127,20.63797z M43.30127,375l-3.77763,47.81898l-39.52364,27.18102l39.52364,27.18102l3.77763,47.81898l43.30127,-20.63797l43.30127,20.63797l3.77763,-47.81898l39.52364,-27.18102l-39.52364,-27.18102l-3.77763,-47.81898l-43.30127,20.63797z M216.50635,375l-3.77763,47.81898l-39.52364,27.18102l39.52364,27.18102l3.77763,47.81898l43.30127,-20.63797l43.30127,20.63797l3.77763,-47.81898l39.52364,-27.18102l-39.52364,-27.18102l-3.77763,-47.81898l-43.30127,20.63797z M389.71143,375l-3.77763,47.81898l-39.52364,27.18102l39.52364,27.18102l3.77763,47.81898l43.30127,-20.63797l43.30127,20.63797l3.77763,-47.81898l39.52364,-27.18102l-39.52364,-27.18102l-3.77763,-47.81898l-43.30127,20.63797z M562.91651,375l-3.77763,47.81898l-39.52364,27.18102l39.52364,27.18102l3.77763,47.81898l43.30127,-20.63797l43.30127,20.63797l3.77763,-47.81898l39.52364,-27.18102l-39.52364,-27.18102l-3.77763,-47.81898l-43.30127,20.63797z M736.12159,375l-3.77763,47.81898l-39.52364,27.18102l39.52364,27.18102l3.77763,47.81898l43.30127,-20.63797l43.30127,20.63797l3.77763,-47.81898l39.52364,-27.18102l-39.52364,-27.18102l-3.77763,-47.81898l-43.30127,20.63797z M909.32667,375l-3.77763,47.81898l-39.52364,27.18102l39.52364,27.18102l3.77763,47.81898l43.30127,-20.63797l43.30127,20.63797l3.77763,-47.81898l39.52364,-27.18102l-39.52364,-27.18102l-3.77763,-47.81898l-43.30127,20.63797z M1082.53175,375l-3.77763,47.81898l-39.52364,27.18102l39.52364,27.18102l3.77763,47.81898l43.30127,-20.63797l43.30127,20.63797l3.77763,-47.81898l39.52364,-27.18102l-39.52364,-27.18102l-3.77763,-47.81898l-43.30127,20.63797z M1255.73684,375l-3.77763,47.81898l-39.52364,27.18102l39.52364,27.18102l3.77763,47.81898l43.30127,-20.63797l43.30127,20.63797l3.77763,-47.81898l39.52364,-27.18102l-39.52364,-27.18102l-3.77763,-47.81898l-43.30127,20.63797z M-43.30127,525l-3.77763,47.81898l-39.52364,27.18102l39.52364,27.18102l3.77763,47.81898l43.30127,-20.63797l43.30127,20.63797l3.77763,-47.81898l39.52364,-27.18102l-39.52364,-27.18102l-3.77763,-47.81898l-43.30127,20.63797z M129.90381,525l-3.77763,47.81898l-39.52364,27.18102l39.52364,27.18102l3.77763,47.81898l43.30127,-20.63797l43.30127,20.63797l3.77763,-47.81898l39.52364,-27.18102l-39.52364,-27.18102l-3.77763,-47.81898l-43.30127,20.63797z M303.10889,525l-3.77763,47.81898l-39.52364,27.18102l39.52364,27.18102l3.77763,47.81898l43.30127,-20.63797l43.30127,20.63797l3.77763,-47.81898l39.52364,-27.18102l-39.52364,-27.18102l-3.77763,-47.81898l-43.30127,20.63797z M476.31397,525l-3.77763,47.81898l-39.52364,27.18102l39.52364,27.18102l3.77763,47.81898l43.30127,-20.63797l43.30127,20.63797l3.77763,-47.81898l39.52364,-27.18102l-39.52364,-27.18102l-3.77763,-47.81898l-43.30127,20.63797z M649.51905,525l-3.77763,47.81898l-39.52364,27.18102l39.52364,27.18102l3.77763,47.81898l43.30127,-20.63797l43.30127,20.63797l3.77763,-47.81898l39.52364,-27.18102l-39.52364,-27.18102l-3.77763,-47.81898l-43.30127,20.63797z M822.72413,525l-3.77763,47.81898l-39.52364,27.18102l39.52364,27.18102l3.77763,47.81898l43.30127,-20.63797l43.30127,20.63797l3.77763,-47.81898l39.52364,-27.18102l-39.52364,-27.18102l-3.77763,-47.81898l-43.30127,20.63797z M995.92921,525l-3.77763,47.81898l-39.52364,27.18102l39.52364,27.18102l3.77763,47.81898l43.30127,-20.63797l43.30127,20.63797l3.77763,-47.81898l39.52364,-27.18102l-39.52364,-27.18102l-3.77763,-47.81898l-43.30127,20.63797z M1169.1343,525l-3.77763,47.81898l-39.52364,27.18102l39.52364,27.18102l3.77763,47.81898l43.30127,-20.63797l43.30127,20.63797l3.77763,-47.81898l39.52364,-27.18102l-39.52364,-27.18102l-3.77763,-47.81898l-43.30127,20.63797z" fill="#9d0744" stroke-width="1"/><path d="M-43.30127,-75l43.30127,20.63797 M0,-54.36203l43.30127,-20.63797 M47.0789,-27.18102l-3.77763,-47.81898 M47.0789,-27.18102l39.52364,27.18102 M47.0789,27.18102l39.52364,-27.18102 M47.0789,27.18102l-3.77763,47.81898 M0,54.36203l43.30127,20.63797 M0,54.36203l-43.30127,20.63797 M-47.0789,27.18102l3.77763,47.81898 M-47.0789,27.18102l-39.52364,-27.18102 M-47.0789,-27.18102l-39.52364,27.18102 M-47.0789,-27.18102l3.77763,-47.81898 M173.20508,-54.36203l-43.30127,-20.63797 M173.20508,-54.36203l43.30127,-20.63797 M220.28398,-27.18102l-3.77763,-47.81898 M220.28398,-27.18102l39.52364,27.18102 M220.28398,27.18102l39.52364,-27.18102 M220.28398,27.18102l-3.77763,47.81898 M173.20508,54.36203l43.30127,20.63797 M173.20508,54.36203l-43.30127,20.63797 M126.12618,27.18102l3.77763,47.81898 M126.12618,27.18102l-39.52364,-27.18102 M126.12618,-27.18102l-39.52364,27.18102 M126.12618,-27.18102l3.77763,-47.81898 M346.41016,-54.36203l-43.30127,-20.63797 M346.41016,-54.36203l43.30127,-20.63797 M393.48906,-27.18102l-3.77763,-47.81898 M393.48906,-27.18102l39.52364,27.18102 M393.48906,27.18102l39.52364,-27.18102 M393.48906,27.18102l-3.77763,47.81898 M346.41016,54.36203l43.30127,20.63797 M346.41016,54.36203l-43.30127,20.63797 M299.33126,27.18102l3.77763,47.81898 M299.33126,27.18102l-39.52364,-27.18102 M299.33126,-27.18102l-39.52364,27.18102 M299.33126,-27.18102l3.77763,-47.81898 M519.61524,-54.36203l-43.30127,-20.63797 M519.61524,-54.36203l43.30127,-20.63797 M566.69415,-27.18102l-3.77763,-47.81898 M566.69415,-27.18102l39.52364,27.18102 M566.69415,27.18102l39.52364,-27.18102 M566.69415,27.18102l-3.77763,47.81898 M519.61524,54.36203l43.30127,20.63797 M519.61524,54.36203l-43.30127,20.63797 M472.53634,27.18102l3.77763,47.81898 M472.53634,27.18102l-39.52364,-27.18102 M472.53634,-27.18102l-39.52364,27.18102 M472.53634,-27.18102l3.77763,-47.81898 M692.82032,-54.36203l-43.30127,-20.63797 M692.82032,-54.36203l43.30127,-20.63797 M739.89923,-27.18102l-3.77763,-47.81898 M739.89923,-27.18102l39.52364,27.18102 M739.89923,27.18102l39.52364,-27.18102 M739.89923,27.18102l-3.77763,47.81898 M692.82032,54.36203l43.30127,20.63797 M692.82032,54.36203l-43.30127,20.63797 M645.74142,27.18102l3.77763,47.81898 M645.74142,27.18102l-39.52364,-27.18102 M645.74142,-27.18102l-39.52364,27.18102 M645.74142,-27.18102l3.77763,-47.81898 M866.0254,-54.36203l-43.30127,-20.63797 M866.0254,-54.36203l43.30127,-20.63797 M913.10431,-27.18102l-3.77763,-47.81898 M913.10431,-27.18102l39.52364,27.18102 M913.10431,27.18102l39.52364,-27.18102 M913.10431,27.18102l-3.77763,47.81898 M866.0254,54.36203l43.30127,20.63797 M866.0254,54.36203l-43.30127,20.63797 M818.9465,27.18102l3.77763,47.81898 M818.9465,27.18102l-39.52364,-27.18102 M818.9465,-27.18102l-39.52364,27.18102 M818.9465,-27.18102l3.77763,-47.81898 M1039.23048,-54.36203l-43.30127,-20.63797 M1039.23048,-54.36203l43.30127,-20.63797 M1086.30939,-27.18102l-3.77763,-47.81898 M1086.30939,-27.18102l39.52364,27.18102 M1086.30939,27.18102l39.52364,-27.18102 M1086.30939,27.18102l-3.77763,47.81898 M1039.23048,54.36203l43.30127,20.63797 M1039.23048,54.36203l-43.30127,20.63797 M992.15158,27.18102l3.77763,47.81898 M992.15158,27.18102l-39.52364,-27.18102 M992.15158,-27.18102l-39.52364,27.18102 M992.15158,-27.18102l3.77763,-47.81898 M1212.43557,-54.36203l-43.30127,-20.63797 M1212.43557,-54.36203l43.30127,-20.63797 M1259.51447,-27.18102l-3.77763,-47.81898 M1259.51447,-27.18102l39.52364,27.18102 M1259.51447,27.18102l39.52364,-27.18102 M1259.51447,27.18102l-3.77763,47.81898 M1212.43557,54.36203l43.30127,20.63797 M1212.43557,54.36203l-43.30127,20.63797 M1165.35666,27.18102l3.77763,47.81898 M1165.35666,27.18102l-39.52364,-27.18102 M1165.35666,-27.18102l-39.52364,27.18102 M1165.35666,-27.18102l3.77763,-47.81898 M86.60254,95.63797l-43.30127,-20.63797 M86.60254,95.63797l43.30127,-20.63797 M133.68144,122.81898l-3.77763,-47.81898 M133.68144,122.81898l39.52364,27.18102 M133.68144,177.18102l39.52364,-27.18102 M133.68144,177.18102l-3.77763,47.81898 M86.60254,204.36203l43.30127,20.63797 M86.60254,204.36203l-43.30127,20.63797 M39.52364,177.18102l3.77763,47.81898 M39.52364,177.18102l-39.52364,-27.18102 M39.52364,122.81898l-39.52364,27.18102 M39.52364,122.81898l3.77763,-47.81898 M259.80762,95.63797l-43.30127,-20.63797 M259.80762,95.63797l43.30127,-20.63797 M306.88652,122.81898l-3.77763,-47.81898 M306.88652,122.81898l39.52364,27.18102 M306.88652,177.18102l39.52364,-27.18102 M306.88652,177.18102l-3.77763,47.81898 M259.80762,204.36203l43.30127,20.63797 M259.80762,204.36203l-43.30127,20.63797 M212.72872,177.18102l3.77763,47.81898 M212.72872,177.18102l-39.52364,-27.18102 M212.72872,122.81898l-39.52364,27.18102 M212.72872,122.81898l3.77763,-47.81898 M433.0127,95.63797l-43.30127,-20.63797 M433.0127,95.63797l43.30127,-20.63797 M480.09161,122.81898l-3.77763,-47.81898 M480.09161,122.81898l39.52364,27.18102 M480.09161,177.18102l39.52364,-27.18102 M480.09161,177.18102l-3.77763,47.81898 M433.0127,204.36203l43.30127,20.63797 M433.0127,204.36203l-43.30127,20.63797 M385.9338,177.18102l3.77763,47.81898 M385.9338,177.18102l-39.52364,-27.18102 M385.9338,122.81898l-39.52364,27.18102 M385.9338,122.81898l3.77763,-47.81898 M606.21778,95.63797l-43.30127,-20.63797 M606.21778,95.63797l43.30127,-20.63797 M653.29669,122.81898l-3.77763,-47.81898 M653.29669,122.81898l39.52364,27.18102 M653.29669,177.18102l39.52364,-27.18102 M653.29669,177.18102l-3.77763,47.81898 M606.21778,204.36203l43.30127,20.63797 M606.21778,204.36203l-43.30127,20.63797 M559.13888,177.18102l3.77763,47.81898 M559.13888,177.18102l-39.52364,-27.18102 M559.13888,122.81898l-39.52364,27.18102 M559.13888,122.81898l3.77763,-47.81898 M779.42286,95.63797l-43.30127,-20.63797 M779.42286,95.63797l43.30127,-20.63797 M826.50177,122.81898l-3.77763,-47.81898 M826.50177,122.81898l39.52364,27.18102 M826.50177,177.18102l39.52364,-27.18102 M826.50177,177.18102l-3.77763,47.81898 M779.42286,204.36203l43.30127,20.63797 M779.42286,204.36203l-43.30127,20.63797 M732.34396,177.18102l3.77763,47.81898 M732.34396,177.18102l-39.52364,-27.18102 M732.34396,122.81898l-39.52364,27.18102 M732.34396,122.81898l3.77763,-47.81898 M952.62794,95.63797l-43.30127,-20.63797 M952.62794,95.63797l43.30127,-20.63797 M999.70685,122.81898l-3.77763,-47.81898 M999.70685,122.81898l39.52364,27.18102 M999.70685,177.18102l39.52364,-27.18102 M999.70685,177.18102l-3.77763,47.81898 M952.62794,204.36203l43.30127,20.63797 M952.62794,204.36203l-43.30127,20.63797 M905.54904,177.18102l3.77763,47.81898 M905.54904,177.18102l-39.52364,-27.18102 M905.54904,122.81898l-39.52364,27.18102 M905.54904,122.81898l3.77763,-47.81898 M1125.83302,95.63797l-43.30127,-20.63797 M1125.83302,95.63797l43.30127,-20.63797 M1172.91193,122.81898l-3.77763,-47.81898 M1172.91193,122.81898l39.52364,27.18102 M1172.91193,177.18102l39.52364,-27.18102 M1172.91193,177.18102l-3.77763,47.81898 M1125.83302,204.36203l43.30127,20.63797 M1125.83302,204.36203l-43.30127,20.63797 M1078.75412,177.18102l3.77763,47.81898 M1078.75412,177.18102l-39.52364,-27.18102 M1078.75412,122.81898l-39.52364,27.18102 M1078.75412,122.81898l3.77763,-47.81898 M1299.03811,95.63797l-43.30127,-20.63797 M1299.03811,95.63797l43.30127,-20.63797 M1346.11701,122.81898l-3.77763,-47.81898 M1346.11701,122.81898l39.52364,27.18102 M1346.11701,177.18102l39.52364,-27.18102 M1346.11701,177.18102l-3.77763,47.81898 M1299.03811,204.36203l43.30127,20.63797 M1299.03811,204.36203l-43.30127,20.63797 M1251.9592,177.18102l3.77763,47.81898 M1251.9592,177.18102l-39.52364,-27.18102 M1251.9592,122.81898l-39.52364,27.18102 M1251.9592,122.81898l3.77763,-47.81898 M0,245.63797l-43.30127,-20.63797 M0,245.63797l43.30127,-20.63797 M47.0789,272.81898l-3.77763,-47.81898 M47.0789,272.81898l39.52364,27.18102 M47.0789,327.18102l39.52364,-27.18102 M47.0789,327.18102l-3.77763,47.81898 M0,354.36203l43.30127,20.63797 M0,354.36203l-43.30127,20.63797 M-47.0789,327.18102l3.77763,47.81898 M-47.0789,327.18102l-39.52364,-27.18102 M-47.0789,272.81898l-39.52364,27.18102 M-47.0789,272.81898l3.77763,-47.81898 M173.20508,245.63797l-43.30127,-20.63797 M173.20508,245.63797l43.30127,-20.63797 M220.28398,272.81898l-3.77763,-47.81898 M220.28398,272.81898l39.52364,27.18102 M220.28398,327.18102l39.52364,-27.18102 M220.28398,327.18102l-3.77763,47.81898 M173.20508,354.36203l43.30127,20.63797 M173.20508,354.36203l-43.30127,20.63797 M126.12618,327.18102l3.77763,47.81898 M126.12618,327.18102l-39.52364,-27.18102 M126.12618,272.81898l-39.52364,27.18102 M126.12618,272.81898l3.77763,-47.81898 M346.41016,245.63797l-43.30127,-20.63797 M346.41016,245.63797l43.30127,-20.63797 M393.48906,272.81898l-3.77763,-47.81898 M393.48906,272.81898l39.52364,27.18102 M393.48906,327.18102l39.52364,-27.18102 M393.48906,327.18102l-3.77763,47.81898 M346.41016,354.36203l43.30127,20.63797 M346.41016,354.36203l-43.30127,20.63797 M299.33126,327.18102l3.77763,47.81898 M299.33126,327.18102l-39.52364,-27.18102 M299.33126,272.81898l-39.52364,27.18102 M299.33126,272.81898l3.77763,-47.81898 M519.61524,245.63797l-43.30127,-20.63797 M519.61524,245.63797l43.30127,-20.63797 M566.69415,272.81898l-3.77763,-47.81898 M566.69415,272.81898l39.52364,27.18102 M566.69415,327.18102l39.52364,-27.18102 M566.69415,327.18102l-3.77763,47.81898 M519.61524,354.36203l43.30127,20.63797 M519.61524,354.36203l-43.30127,20.63797 M472.53634,327.18102l3.77763,47.81898 M472.53634,327.18102l-39.52364,-27.18102 M472.53634,272.81898l-39.52364,27.18102 M472.53634,272.81898l3.77763,-47.81898 M692.82032,245.63797l-43.30127,-20.63797 M692.82032,245.63797l43.30127,-20.63797 M739.89923,272.81898l-3.77763,-47.81898 M739.89923,272.81898l39.52364,27.18102 M739.89923,327.18102l39.52364,-27.18102 M739.89923,327.18102l-3.77763,47.81898 M692.82032,354.36203l43.30127,20.63797 M692.82032,354.36203l-43.30127,20.63797 M645.74142,327.18102l3.77763,47.81898 M645.74142,327.18102l-39.52364,-27.18102 M645.74142,272.81898l-39.52364,27.18102 M645.74142,272.81898l3.77763,-47.81898 M866.0254,245.63797l-43.30127,-20.63797 M866.0254,245.63797l43.30127,-20.63797 M913.10431,272.81898l-3.77763,-47.81898 M913.10431,272.81898l39.52364,27.18102 M913.10431,327.18102l39.52364,-27.18102 M913.10431,327.18102l-3.77763,47.81898 M866.0254,354.36203l43.30127,20.63797 M866.0254,354.36203l-43.30127,20.63797 M818.9465,327.18102l3.77763,47.81898 M818.9465,327.18102l-39.52364,-27.18102 M818.9465,272.81898l-39.52364,27.18102 M818.9465,272.81898l3.77763,-47.81898 M1039.23048,245.63797l-43.30127,-20.63797 M1039.23048,245.63797l43.30127,-20.63797 M1086.30939,272.81898l-3.77763,-47.81898 M1086.30939,272.81898l39.52364,27.18102 M1086.30939,327.18102l39.52364,-27.18102 M1086.30939,327.18102l-3.77763,47.81898 M1039.23048,354.36203l43.30127,20.63797 M1039.23048,354.36203l-43.30127,20.63797 M992.15158,327.18102l3.77763,47.81898 M992.15158,327.18102l-39.52364,-27.18102 M992.15158,272.81898l-39.52364,27.18102 M992.15158,272.81898l3.77763,-47.81898 M1212.43557,245.63797l-43.30127,-20.63797 M1212.43557,245.63797l43.30127,-20.63797 M1259.51447,272.81898l-3.77763,-47.81898 M1259.51447,272.81898l39.52364,27.18102 M1259.51447,327.18102l39.52364,-27.18102 M1259.51447,327.18102l-3.77763,47.81898 M1212.43557,354.36203l43.30127,20.63797 M1212.43557,354.36203l-43.30127,20.63797 M1165.35666,327.18102l3.77763,47.81898 M1165.35666,327.18102l-39.52364,-27.18102 M1165.35666,272.81898l-39.52364,27.18102 M1165.35666,272.81898l3.77763,-47.81898 M86.60254,395.63797l-43.30127,-20.63797 M86.60254,395.63797l43.30127,-20.63797 M133.68144,422.81898l-3.77763,-47.81898 M133.68144,422.81898l39.52364,27.18102 M133.68144,477.18102l39.52364,-27.18102 M133.68144,477.18102l-3.77763,47.81898 M86.60254,504.36203l43.30127,20.63797 M86.60254,504.36203l-43.30127,20.63797 M39.52364,477.18102l3.77763,47.81898 M39.52364,477.18102l-39.52364,-27.18102 M39.52364,422.81898l-39.52364,27.18102 M39.52364,422.81898l3.77763,-47.81898 M259.80762,395.63797l-43.30127,-20.63797 M259.80762,395.63797l43.30127,-20.63797 M306.88652,422.81898l-3.77763,-47.81898 M306.88652,422.81898l39.52364,27.18102 M306.88652,477.18102l39.52364,-27.18102 M306.88652,477.18102l-3.77763,47.81898 M259.80762,504.36203l43.30127,20.63797 M259.80762,504.36203l-43.30127,20.63797 M212.72872,477.18102l3.77763,47.81898 M212.72872,477.18102l-39.52364,-27.18102 M212.72872,422.81898l-39.52364,27.18102 M212.72872,422.81898l3.77763,-47.81898 M433.0127,395.63797l-43.30127,-20.63797 M433.0127,395.63797l43.30127,-20.63797 M480.09161,422.81898l-3.77763,-47.81898 M480.09161,422.81898l39.52364,27.18102 M480.09161,477.18102l39.52364,-27.18102 M480.09161,477.18102l-3.77763,47.81898 M433.0127,504.36203l43.30127,20.63797 M433.0127,504.36203l-43.30127,20.63797 M385.9338,477.18102l3.77763,47.81898 M385.9338,477.18102l-39.52364,-27.18102 M385.9338,422.81898l-39.52364,27.18102 M385.9338,422.81898l3.77763,-47.81898 M606.21778,395.63797l-43.30127,-20.63797 M606.21778,395.63797l43.30127,-20.63797 M653.29669,422.81898l-3.77763,-47.81898 M653.29669,422.81898l39.52364,27.18102 M653.29669,477.18102l39.52364,-27.18102 M653.29669,477.18102l-3.77763,47.81898 M606.21778,504.36203l43.30127,20.63797 M606.21778,504.36203l-43.30127,20.63797 M559.13888,477.18102l3.77763,47.81898 M559.13888,477.18102l-39.52364,-27.18102 M559.13888,422.81898l-39.52364,27.18102 M559.13888,422.81898l3.77763,-47.81898 M779.42286,395.63797l-43.30127,-20.63797 M779.42286,395.63797l43.30127,-20.63797 M826.50177,422.81898l-3.77763,-47.81898 M826.50177,422.81898l39.52364,27.18102 M826.50177,477.18102l39.52364,-27.18102 M826.50177,477.18102l-3.77763,47.81898 M779.42286,504.36203l43.30127,20.63797 M779.42286,504.36203l-43.30127,20.63797 M732.34396,477.18102l3.77763,47.81898 M732.34396,477.18102l-39.52364,-27.18102 M732.34396,422.81898l-39.52364,27.18102 M732.34396,422.81898l3.77763,-47.81898 M952.62794,395.63797l-43.30127,-20.63797 M952.62794,395.63797l43.30127,-20.63797 M999.70685,422.81898l-3.77763,-47.81898 M999.70685,422.81898l39.52364,27.18102 M999.70685,477.18102l39.52364,-27.18102 M999.70685,477.18102l-3.77763,47.81898 M952.62794,504.36203l43.30127,20.63797 M952.62794,504.36203l-43.30127,20.63797 M905.54904,477.18102l3.77763,47.81898 M905.54904,477.18102l-39.52364,-27.18102 M905.54904,422.81898l-39.52364,27.18102 M905.54904,422.81898l3.77763,-47.81898 M1125.83302,395.63797l-43.30127,-20.63797 M1125.83302,395.63797l43.30127,-20.63797 M1172.91193,422.81898l-3.77763,-47.81898 M1172.91193,422.81898l39.52364,27.18102 M1172.91193,477.18102l39.52364,-27.18102 M1172.91193,477.18102l-3.77763,47.81898 M1125.83302,504.36203l43.30127,20.63797 M1125.83302,504.36203l-43.30127,20.63797 M1078.75412,477.18102l3.77763,47.81898 M1078.75412,477.18102l-39.52364,-27.18102 M1078.75412,422.81898l-39.52364,27.18102 M1078.75412,422.81898l3.77763,-47.81898 M1299.03811,395.63797l-43.30127,-20.63797 M1299.03811,395.63797l43.30127,-20.63797 M1346.11701,422.81898l-3.77763,-47.81898 M1346.11701,422.81898l39.52364,27.18102 M1346.11701,477.18102l39.52364,-27.18102 M1346.11701,477.18102l-3.77763,47.81898 M1299.03811,504.36203l43.30127,20.63797 M1299.03811,504.36203l-43.30127,20.63797 M1251.9592,477.18102l3.77763,47.81898 M1251.9592,477.18102l-39.52364,-27.18102 M1251.9592,422.81898l-39.52364,27.18102 M1251.9592,422.81898l3.77763,-47.81898 M0,545.63797l-43.30127,-20.63797 M0,545.63797l43.30127,-20.63797 M47.0789,572.81898l-3.77763,-47.81898 M47.0789,572.81898l39.52364,27.18102 M47.0789,627.18102l39.52364,-27.18102 M47.0789,627.18102l-3.77763,47.81898 M0,654.36203l43.30127,20.63797 M0,654.36203l-43.30127,20.63797 M-47.0789,627.18102l3.77763,47.81898 M-47.0789,627.18102l-39.52364,-27.18102 M-47.0789,572.81898l-39.52364,27.18102 M-47.0789,572.81898l3.77763,-47.81898 M173.20508,545.63797l-43.30127,-20.63797 M173.20508,545.63797l43.30127,-20.63797 M220.28398,572.81898l-3.77763,-47.81898 M220.28398,572.81898l39.52364,27.18102 M220.28398,627.18102l39.52364,-27.18102 M220.28398,627.18102l-3.77763,47.81898 M173.20508,654.36203l43.30127,20.63797 M173.20508,654.36203l-43.30127,20.63797 M126.12618,627.18102l3.77763,47.81898 M126.12618,627.18102l-39.52364,-27.18102 M126.12618,572.81898l-39.52364,27.18102 M126.12618,572.81898l3.77763,-47.81898 M346.41016,545.63797l-43.30127,-20.63797 M346.41016,545.63797l43.30127,-20.63797 M393.48906,572.81898l-3.77763,-47.81898 M393.48906,572.81898l39.52364,27.18102 M393.48906,627.18102l39.52364,-27.18102 M393.48906,627.18102l-3.77763,47.81898 M346.41016,654.36203l43.30127,20.63797 M346.41016,654.36203l-43.30127,20.63797 M299.33126,627.18102l3.77763,47.81898 M299.33126,627.18102l-39.52364,-27.18102 M299.33126,572.81898l-39.52364,27.18102 M299.33126,572.81898l3.77763,-47.81898 M519.61524,545.63797l-43.30127,-20.63797 M519.61524,545.63797l43.30127,-20.63797 M566.69415,572.81898l-3.77763,-47.81898 M566.69415,572.81898l39.52364,27.18102 M566.69415,627.18102l39.52364,-27.18102 M566.69415,627.18102l-3.77763,47.81898 M519.61524,654.36203l43.30127,20.63797 M519.61524,654.36203l-43.30127,20.63797 M472.53634,627.18102l3.77763,47.81898 M472.53634,627.18102l-39.52364,-27.18102 M472.53634,572.81898l-39.52364,27.18102 M472.53634,572.81898l3.77763,-47.81898 M692.82032,545.63797l-43.30127,-20.63797 M692.82032,545.63797l43.30127,-20.63797 M739.89923,572.81898l-3.77763,-47.81898 M739.89923,572.81898l39.52364,27.18102 M739.89923,627.18102l39.52364,-27.18102 M739.89923,627.18102l-3.77763,47.81898 M692.82032,654.36203l43.30127,20.63797 M692.82032,654.36203l-43.30127,20.63797 M645.74142,627.18102l3.77763,47.81898 M645.74142,627.18102l-39.52364,-27.18102 M645.74142,572.81898l-39.52364,27.18102 M645.74142,572.81898l3.77763,-47.81898 M866.0254,545.63797l-43.30127,-20.63797 M866.0254,545.63797l43.30127,-20.63797 M913.10431,572.81898l-3.77763,-47.81898 M913.10431,572.81898l39.52364,27.18102 M913.10431,627.18102l39.52364,-27.18102 M913.10431,627.18102l-3.77763,47.81898 M866.0254,654.36203l43.30127,20.63797 M866.0254,654.36203l-43.30127,20.63797 M818.9465,627.18102l3.77763,47.81898 M818.9465,627.18102l-39.52364,-27.18102 M818.9465,572.81898l-39.52364,27.18102 M818.9465,572.81898l3.77763,-47.81898 M1039.23048,545.63797l-43.30127,-20.63797 M1039.23048,545.63797l43.30127,-20.63797 M1086.30939,572.81898l-3.77763,-47.81898 M1086.30939,572.81898l39.52364,27.18102 M1086.30939,627.18102l39.52364,-27.18102 M1086.30939,627.18102l-3.77763,47.81898 M1039.23048,654.36203l43.30127,20.63797 M1039.23048,654.36203l-43.30127,20.63797 M992.15158,627.18102l3.77763,47.81898 M992.15158,627.18102l-39.52364,-27.18102 M992.15158,572.81898l-39.52364,27.18102 M992.15158,572.81898l3.77763,-47.81898 M1212.43557,545.63797l-43.30127,-20.63797 M1212.43557,545.63797l43.30127,-20.63797 M1259.51447,572.81898l-3.77763,-47.81898 M1259.51447,572.81898l39.52364,27.18102 M1259.51447,627.18102l39.52364,-27.18102 M1259.51447,627.18102l-3.77763,47.81898 M1212.43557,654.36203l43.30127,20.63797 M1212.43557,654.36203l-43.30127,20.63797 M1165.35666,627.18102l3.77763,47.81898 M1165.35666,627.18102l-39.52364,-27.18102 M1165.35666,572.81898l-39.52364,27.18102 M1165.35666,572.81898l3.77763,-47.81898" stroke="#f2e1d9" stroke-width="11"/><path d="M-5.5,-54.36203c0,-3.03757 2.46243,-5.5 5.5,-5.5c3.03757,0 5.5,2.46243 5.5,5.5c0,3.03757 -2.46243,5.5 -5.5,5.5c-3.03757,0 -5.5,-2.46243 -5.5,-5.5z M47.0789,-21.68102c3.03757,0 5.5,-2.46243 5.5,-5.5c0,-3.03757 -2.46243,-5.5 -5.5,-5.5c-3.03757,0 -5.5,2.46243 -5.5,5.5c0,3.03757 2.46243,5.5 5.5,5.5z M47.0789,32.68102c3.03757,0 5.5,-2.46243 5.5,-5.5c0,-3.03757 -2.46243,-5.5 -5.5,-5.5c-3.03757,0 -5.5,2.46243 -5.5,5.5c0,3.03757 2.46243,5.5 5.5,5.5z M0,59.86203c3.03757,0 5.5,-2.46243 5.5,-5.5c0,-3.03757 -2.46243,-5.5 -5.5,-5.5c-3.03757,0 -5.5,2.46243 -5.5,5.5c0,3.03757 2.46243,5.5 5.5,5.5z M-47.0789,32.68102c3.03757,0 5.5,-2.46243 5.5,-5.5c0,-3.03757 -2.46243,-5.5 -5.5,-5.5c-3.03757,0 -5.5,2.46243 -5.5,5.5c0,3.03757 2.46243,5.5 5.5,5.5z M-47.0789,-21.68102c3.03757,0 5.5,-2.46243 5.5,-5.5c0,-3.03757 -2.46243,-5.5 -5.5,-5.5c-3.03757,0 -5.5,2.46243 -5.5,5.5c0,3.03757 2.46243,5.5 5.5,5.5z M173.20508,-48.86203c3.03757,0 5.5,-2.46243 5.5,-5.5c0,-3.03757 -2.46243,-5.5 -5.5,-5.5c-3.03757,0 -5.5,2.46243 -5.5,5.5c0,3.03757 2.46243,5.5 5.5,5.5z M220.28398,-21.68102c3.03757,0 5.5,-2.46243 5.5,-5.5c0,-3.03757 -2.46243,-5.5 -5.5,-5.5c-3.03757,0 -5.5,2.46243 -5.5,5.5c0,3.03757 2.46243,5.5 5.5,5.5z M220.28398,32.68102c3.03757,0 5.5,-2.46243 5.5,-5.5c0,-3.03757 -2.46243,-5.5 -5.5,-5.5c-3.03757,0 -5.5,2.46243 -5.5,5.5c0,3.03757 2.46243,5.5 5.5,5.5z M173.20508,59.86203c3.03757,0 5.5,-2.46243 5.5,-5.5c0,-3.03757 -2.46243,-5.5 -5.5,-5.5c-3.03757,0 -5.5,2.46243 -5.5,5.5c0,3.03757 2.46243,5.5 5.5,5.5z M126.12618,32.68102c3.03757,0 5.5,-2.46243 5.5,-5.5c0,-3.03757 -2.46243,-5.5 -5.5,-5.5c-3.03757,0 -5.5,2.46243 -5.5,5.5c0,3.03757 2.46243,5.5 5.5,5.5z M126.12618,-21.68102c3.03757,0 5.5,-2.46243 5.5,-5.5c0,-3.03757 -2.46243,-5.5 -5.5,-5.5c-3.03757,0 -5.5,2.46243 -5.5,5.5c0,3.03757 2.46243,5.5 5.5,5.5z M346.41016,-48.86203c3.03757,0 5.5,-2.46243 5.5,-5.5c0,-3.03757 -2.46243,-5.5 -5.5,-5.5c-3.03757,0 -5.5,2.46243 -5.5,5.5c0,3.03757 2.46243,5.5 5.5,5.5z M393.48906,-21.68102c3.03757,0 5.5,-2.46243 5.5,-5.5c0,-3.03757 -2.46243,-5.5 -5.5,-5.5c-3.03757,0 -5.5,2.46243 -5.5,5.5c0,3.03757 2.46243,5.5 5.5,5.5z M393.48906,32.68102c3.03757,0 5.5,-2.46243 5.5,-5.5c0,-3.03757 -2.46243,-5.5 -5.5,-5.5c-3.03757,0 -5.5,2.46243 -5.5,5.5c0,3.03757 2.46243,5.5 5.5,5.5z M346.41016,59.86203c3.03757,0 5.5,-2.46243 5.5,-5.5c0,-3.03757 -2.46243,-5.5 -5.5,-5.5c-3.03757,0 -5.5,2.46243 -5.5,5.5c0,3.03757 2.46243,5.5 5.5,5.5z M299.33126,32.68102c3.03757,0 5.5,-2.46243 5.5,-5.5c0,-3.03757 -2.46243,-5.5 -5.5,-5.5c-3.03757,0 -5.5,2.46243 -5.5,5.5c0,3.03757 2.46243,5.5 5.5,5.5z M299.33126,-21.68102c3.03757,0 5.5,-2.46243 5.5,-5.5c0,-3.03757 -2.46243,-5.5 -5.5,-5.5c-3.03757,0 -5.5,2.46243 -5.5,5.5c0,3.03757 2.46243,5.5 5.5,5.5z M519.61524,-48.86203c3.03757,0 5.5,-2.46243 5.5,-5.5c0,-3.03757 -2.46243,-5.5 -5.5,-5.5c-3.03757,0 -5.5,2.46243 -5.5,5.5c0,3.03757 2.46243,5.5 5.5,5.5z M566.69415,-21.68102c3.03757,0 5.5,-2.46243 5.5,-5.5c0,-3.03757 -2.46243,-5.5 -5.5,-5.5c-3.03757,0 -5.5,2.46243 -5.5,5.5c0,3.03757 2.46243,5.5 5.5,5.5z M566.69415,32.68102c3.03757,0 5.5,-2.46243 5.5,-5.5c0,-3.03757 -2.46243,-5.5 -5.5,-5.5c-3.03757,0 -5.5,2.46243 -5.5,5.5c0,3.03757 2.46243,5.5 5.5,5.5z M519.61524,59.86203c3.03757,0 5.5,-2.46243 5.5,-5.5c0,-3.03757 -2.46243,-5.5 -5.5,-5.5c-3.03757,0 -5.5,2.46243 -5.5,5.5c0,3.03757 2.46243,5.5 5.5,5.5z M472.53634,32.68102c3.03757,0 5.5,-2.46243 5.5,-5.5c0,-3.03757 -2.46243,-5.5 -5.5,-5.5c-3.03757,0 -5.5,2.46243 -5.5,5.5c0,3.03757 2.46243,5.5 5.5,5.5z M472.53634,-21.68102c3.03757,0 5.5,-2.46243 5.5,-5.5c0,-3.03757 -2.46243,-5.5 -5.5,-5.5c-3.03757,0 -5.5,2.46243 -5.5,5.5c0,3.03757 2.46243,5.5 5.5,5.5z M692.82032,-48.86203c3.03757,0 5.5,-2.46243 5.5,-5.5c0,-3.03757 -2.46243,-5.5 -5.5,-5.5c-3.03757,0 -5.5,2.46243 -5.5,5.5c0,3.03757 2.46243,5.5 5.5,5.5z M739.89923,-21.68102c3.03757,0 5.5,-2.46243 5.5,-5.5c0,-3.03757 -2.46243,-5.5 -5.5,-5.5c-3.03757,0 -5.5,2.46243 -5.5,5.5c0,3.03757 2.46243,5.5 5.5,5.5z M739.89923,32.68102c3.03757,0 5.5,-2.46243 5.5,-5.5c0,-3.03757 -2.46243,-5.5 -5.5,-5.5c-3.03757,0 -5.5,2.46243 -5.5,5.5c0,3.03757 2.46243,5.5 5.5,5.5z M692.82032,59.86203c3.03757,0 5.5,-2.46243 5.5,-5.5c0,-3.03757 -2.46243,-5.5 -5.5,-5.5c-3.03757,0 -5.5,2.46243 -5.5,5.5c0,3.03757 2.46243,5.5 5.5,5.5z M645.74142,32.68102c3.03757,0 5.5,-2.46243 5.5,-5.5c0,-3.03757 -2.46243,-5.5 -5.5,-5.5c-3.03757,0 -5.5,2.46243 -5.5,5.5c0,3.03757 2.46243,5.5 5.5,5.5z M645.74142,-21.68102c3.03757,0 5.5,-2.46243 5.5,-5.5c0,-3.03757 -2.46243,-5.5 -5.5,-5.5c-3.03757,0 -5.5,2.46243 -5.5,5.5c0,3.03757 2.46243,5.5 5.5,5.5z M866.0254,-48.86203c3.03757,0 5.5,-2.46243 5.5,-5.5c0,-3.03757 -2.46243,-5.5 -5.5,-5.5c-3.03757,0 -5.5,2.46243 -5.5,5.5c0,3.03757 2.46243,5.5 5.5,5.5z M913.10431,-21.68102c3.03757,0 5.5,-2.46243 5.5,-5.5c0,-3.03757 -2.46243,-5.5 -5.5,-5.5c-3.03757,0 -5.5,2.46243 -5.5,5.5c0,3.03757 2.46243,5.5 5.5,5.5z M913.10431,32.68102c3.03757,0 5.5,-2.46243 5.5,-5.5c0,-3.03757 -2.46243,-5.5 -5.5,-5.5c-3.03757,0 -5.5,2.46243 -5.5,5.5c0,3.03757 2.46243,5.5 5.5,5.5z M866.0254,59.86203c3.03757,0 5.5,-2.46243 5.5,-5.5c0,-3.03757 -2.46243,-5.5 -5.5,-5.5c-3.03757,0 -5.5,2.46243 -5.5,5.5c0,3.03757 2.46243,5.5 5.5,5.5z M818.9465,32.68102c3.03757,0 5.5,-2.46243 5.5,-5.5c0,-3.03757 -2.46243,-5.5 -5.5,-5.5c-3.03757,0 -5.5,2.46243 -5.5,5.5c0,3.03757 2.46243,5.5 5.5,5.5z M818.9465,-21.68102c3.03757,0 5.5,-2.46243 5.5,-5.5c0,-3.03757 -2.46243,-5.5 -5.5,-5.5c-3.03757,0 -5.5,2.46243 -5.5,5.5c0,3.03757 2.46243,5.5 5.5,5.5z M1039.23048,-48.86203c3.03757,0 5.5,-2.46243 5.5,-5.5c0,-3.03757 -2.46243,-5.5 -5.5,-5.5c-3.03757,0 -5.5,2.46243 -5.5,5.5c0,3.03757 2.46243,5.5 5.5,5.5z M1086.30939,-21.68102c3.03757,0 5.5,-2.46243 5.5,-5.5c0,-3.03757 -2.46243,-5.5 -5.5,-5.5c-3.03757,0 -5.5,2.46243 -5.5,5.5c0,3.03757 2.46243,5.5 5.5,5.5z M1086.30939,32.68102c3.03757,0 5.5,-2.46243 5.5,-5.5c0,-3.03757 -2.46243,-5.5 -5.5,-5.5c-3.03757,0 -5.5,2.46243 -5.5,5.5c0,3.03757 2.46243,5.5 5.5,5.5z M1039.23048,59.86203c3.03757,0 5.5,-2.46243 5.5,-5.5c0,-3.03757 -2.46243,-5.5 -5.5,-5.5c-3.03757,0 -5.5,2.46243 -5.5,5.5c0,3.03757 2.46243,5.5 5.5,5.5z M992.15158,32.68102c3.03757,0 5.5,-2.46243 5.5,-5.5c0,-3.03757 -2.46243,-5.5 -5.5,-5.5c-3.03757,0 -5.5,2.46243 -5.5,5.5c0,3.03757 2.46243,5.5 5.5,5.5z M992.15158,-21.68102c3.03757,0 5.5,-2.46243 5.5,-5.5c0,-3.03757 -2.46243,-5.5 -5.5,-5.5c-3.03757,0 -5.5,2.46243 -5.5,5.5c0,3.03757 2.46243,5.5 5.5,5.5z M1212.43557,-48.86203c3.03757,0 5.5,-2.46243 5.5,-5.5c0,-3.03757 -2.46243,-5.5 -5.5,-5.5c-3.03757,0 -5.5,2.46243 -5.5,5.5c0,3.03757 2.46243,5.5 5.5,5.5z M1259.51447,-21.68102c3.03757,0 5.5,-2.46243 5.5,-5.5c0,-3.03757 -2.46243,-5.5 -5.5,-5.5c-3.03757,0 -5.5,2.46243 -5.5,5.5c0,3.03757 2.46243,5.5 5.5,5.5z M1259.51447,32.68102c3.03757,0 5.5,-2.46243 5.5,-5.5c0,-3.03757 -2.46243,-5.5 -5.5,-5.5c-3.03757,0 -5.5,2.46243 -5.5,5.5c0,3.03757 2.46243,5.5 5.5,5.5z M1212.43557,59.86203c3.03757,0 5.5,-2.46243 5.5,-5.5c0,-3.03757 -2.46243,-5.5 -5.5,-5.5c-3.03757,0 -5.5,2.46243 -5.5,5.5c0,3.03757 2.46243,5.5 5.5,5.5z M1165.35666,32.68102c3.03757,0 5.5,-2.46243 5.5,-5.5c0,-3.03757 -2.46243,-5.5 -5.5,-5.5c-3.03757,0 -5.5,2.46243 -5.5,5.5c0,3.03757 2.46243,5.5 5.5,5.5z M1165.35666,-21.68102c3.03757,0 5.5,-2.46243 5.5,-5.5c0,-3.03757 -2.46243,-5.5 -5.5,-5.5c-3.03757,0 -5.5,2.46243 -5.5,5.5c0,3.03757 2.46243,5.5 5.5,5.5z M86.60254,101.13797c3.03757,0 5.5,-2.46243 5.5,-5.5c0,-3.03757 -2.46243,-5.5 -5.5,-5.5c-3.03757,0 -5.5,2.46243 -5.5,5.5c0,3.03757 2.46243,5.5 5.5,5.5z M133.68144,128.31898c3.03757,0 5.5,-2.46243 5.5,-5.5c0,-3.03757 -2.46243,-5.5 -5.5,-5.5c-3.03757,0 -5.5,2.46243 -5.5,5.5c0,3.03757 2.46243,5.5 5.5,5.5z M133.68144,182.68102c3.03757,0 5.5,-2.46243 5.5,-5.5c0,-3.03757 -2.46243,-5.5 -5.5,-5.5c-3.03757,0 -5.5,2.46243 -5.5,5.5c0,3.03757 2.46243,5.5 5.5,5.5z M86.60254,209.86203c3.03757,0 5.5,-2.46243 5.5,-5.5c0,-3.03757 -2.46243,-5.5 -5.5,-5.5c-3.03757,0 -5.5,2.46243 -5.5,5.5c0,3.03757 2.46243,5.5 5.5,5.5z M39.52364,182.68102c3.03757,0 5.5,-2.46243 5.5,-5.5c0,-3.03757 -2.46243,-5.5 -5.5,-5.5c-3.03757,0 -5.5,2.46243 -5.5,5.5c0,3.03757 2.46243,5.5 5.5,5.5z M39.52364,128.31898c3.03757,0 5.5,-2.46243 5.5,-5.5c0,-3.03757 -2.46243,-5.5 -5.5,-5.5c-3.03757,0 -5.5,2.46243 -5.5,5.5c0,3.03757 2.46243,5.5 5.5,5.5z M259.80762,101.13797c3.03757,0 5.5,-2.46243 5.5,-5.5c0,-3.03757 -2.46243,-5.5 -5.5,-5.5c-3.03757,0 -5.5,2.46243 -5.5,5.5c0,3.03757 2.46243,5.5 5.5,5.5z M306.88652,128.31898c3.03757,0 5.5,-2.46243 5.5,-5.5c0,-3.03757 -2.46243,-5.5 -5.5,-5.5c-3.03757,0 -5.5,2.46243 -5.5,5.5c0,3.03757 2.46243,5.5 5.5,5.5z M306.88652,182.68102c3.03757,0 5.5,-2.46243 5.5,-5.5c0,-3.03757 -2.46243,-5.5 -5.5,-5.5c-3.03757,0 -5.5,2.46243 -5.5,5.5c0,3.03757 2.46243,5.5 5.5,5.5z M259.80762,209.86203c3.03757,0 5.5,-2.46243 5.5,-5.5c0,-3.03757 -2.46243,-5.5 -5.5,-5.5c-3.03757,0 -5.5,2.46243 -5.5,5.5c0,3.03757 2.46243,5.5 5.5,5.5z M212.72872,182.68102c3.03757,0 5.5,-2.46243 5.5,-5.5c0,-3.03757 -2.46243,-5.5 -5.5,-5.5c-3.03757,0 -5.5,2.46243 -5.5,5.5c0,3.03757 2.46243,5.5 5.5,5.5z M212.72872,128.31898c3.03757,0 5.5,-2.46243 5.5,-5.5c0,-3.03757 -2.46243,-5.5 -5.5,-5.5c-3.03757,0 -5.5,2.46243 -5.5,5.5c0,3.03757 2.46243,5.5 5.5,5.5z M433.0127,101.13797c3.03757,0 5.5,-2.46243 5.5,-5.5c0,-3.03757 -2.46243,-5.5 -5.5,-5.5c-3.03757,0 -5.5,2.46243 -5.5,5.5c0,3.03757 2.46243,5.5 5.5,5.5z M480.09161,128.31898c3.03757,0 5.5,-2.46243 5.5,-5.5c0,-3.03757 -2.46243,-5.5 -5.5,-5.5c-3.03757,0 -5.5,2.46243 -5.5,5.5c0,3.03757 2.46243,5.5 5.5,5.5z M480.09161,182.68102c3.03757,0 5.5,-2.46243 5.5,-5.5c0,-3.03757 -2.46243,-5.5 -5.5,-5.5c-3.03757,0 -5.5,2.46243 -5.5,5.5c0,3.03757 2.46243,5.5 5.5,5.5z M433.0127,209.86203c3.03757,0 5.5,-2.46243 5.5,-5.5c0,-3.03757 -2.46243,-5.5 -5.5,-5.5c-3.03757,0 -5.5,2.46243 -5.5,5.5c0,3.03757 2.46243,5.5 5.5,5.5z M385.9338,182.68102c3.03757,0 5.5,-2.46243 5.5,-5.5c0,-3.03757 -2.46243,-5.5 -5.5,-5.5c-3.03757,0 -5.5,2.46243 -5.5,5.5c0,3.03757 2.46243,5.5 5.5,5.5z M385.9338,128.31898c3.03757,0 5.5,-2.46243 5.5,-5.5c0,-3.03757 -2.46243,-5.5 -5.5,-5.5c-3.03757,0 -5.5,2.46243 -5.5,5.5c0,3.03757 2.46243,5.5 5.5,5.5z M606.21778,101.13797c3.03757,0 5.5,-2.46243 5.5,-5.5c0,-3.03757 -2.46243,-5.5 -5.5,-5.5c-3.03757,0 -5.5,2.46243 -5.5,5.5c0,3.03757 2.46243,5.5 5.5,5.5z M653.29669,128.31898c3.03757,0 5.5,-2.46243 5.5,-5.5c0,-3.03757 -2.46243,-5.5 -5.5,-5.5c-3.03757,0 -5.5,2.46243 -5.5,5.5c0,3.03757 2.46243,5.5 5.5,5.5z M653.29669,182.68102c3.03757,0 5.5,-2.46243 5.5,-5.5c0,-3.03757 -2.46243,-5.5 -5.5,-5.5c-3.03757,0 -5.5,2.46243 -5.5,5.5c0,3.03757 2.46243,5.5 5.5,5.5z M606.21778,209.86203c3.03757,0 5.5,-2.46243 5.5,-5.5c0,-3.03757 -2.46243,-5.5 -5.5,-5.5c-3.03757,0 -5.5,2.46243 -5.5,5.5c0,3.03757 2.46243,5.5 5.5,5.5z M559.13888,182.68102c3.03757,0 5.5,-2.46243 5.5,-5.5c0,-3.03757 -2.46243,-5.5 -5.5,-5.5c-3.03757,0 -5.5,2.46243 -5.5,5.5c0,3.03757 2.46243,5.5 5.5,5.5z M559.13888,128.31898c3.03757,0 5.5,-2.46243 5.5,-5.5c0,-3.03757 -2.46243,-5.5 -5.5,-5.5c-3.03757,0 -5.5,2.46243 -5.5,5.5c0,3.03757 2.46243,5.5 5.5,5.5z M779.42286,101.13797c3.03757,0 5.5,-2.46243 5.5,-5.5c0,-3.03757 -2.46243,-5.5 -5.5,-5.5c-3.03757,0 -5.5,2.46243 -5.5,5.5c0,3.03757 2.46243,5.5 5.5,5.5z M826.50177,128.31898c3.03757,0 5.5,-2.46243 5.5,-5.5c0,-3.03757 -2.46243,-5.5 -5.5,-5.5c-3.03757,0 -5.5,2.46243 -5.5,5.5c0,3.03757 2.46243,5.5 5.5,5.5z M826.50177,182.68102c3.03757,0 5.5,-2.46243 5.5,-5.5c0,-3.03757 -2.46243,-5.5 -5.5,-5.5c-3.03757,0 -5.5,2.46243 -5.5,5.5c0,3.03757 2.46243,5.5 5.5,5.5z M779.42286,209.86203c3.03757,0 5.5,-2.46243 5.5,-5.5c0,-3.03757 -2.46243,-5.5 -5.5,-5.5c-3.03757,0 -5.5,2.46243 -5.5,5.5c0,3.03757 2.46243,5.5 5.5,5.5z M732.34396,182.68102c3.03757,0 5.5,-2.46243 5.5,-5.5c0,-3.03757 -2.46243,-5.5 -5.5,-5.5c-3.03757,0 -5.5,2.46243 -5.5,5.5c0,3.03757 2.46243,5.5 5.5,5.5z M732.34396,128.31898c3.03757,0 5.5,-2.46243 5.5,-5.5c0,-3.03757 -2.46243,-5.5 -5.5,-5.5c-3.03757,0 -5.5,2.46243 -5.5,5.5c0,3.03757 2.46243,5.5 5.5,5.5z M952.62794,101.13797c3.03757,0 5.5,-2.46243 5.5,-5.5c0,-3.03757 -2.46243,-5.5 -5.5,-5.5c-3.03757,0 -5.5,2.46243 -5.5,5.5c0,3.03757 2.46243,5.5 5.5,5.5z M999.70685,128.31898c3.03757,0 5.5,-2.46243 5.5,-5.5c0,-3.03757 -2.46243,-5.5 -5.5,-5.5c-3.03757,0 -5.5,2.46243 -5.5,5.5c0,3.03757 2.46243,5.5 5.5,5.5z M999.70685,182.68102c3.03757,0 5.5,-2.46243 5.5,-5.5c0,-3.03757 -2.46243,-5.5 -5.5,-5.5c-3.03757,0 -5.5,2.46243 -5.5,5.5c0,3.03757 2.46243,5.5 5.5,5.5z M952.62794,209.86203c3.03757,0 5.5,-2.46243 5.5,-5.5c0,-3.03757 -2.46243,-5.5 -5.5,-5.5c-3.03757,0 -5.5,2.46243 -5.5,5.5c0,3.03757 2.46243,5.5 5.5,5.5z M905.54904,182.68102c3.03757,0 5.5,-2.46243 5.5,-5.5c0,-3.03757 -2.46243,-5.5 -5.5,-5.5c-3.03757,0 -5.5,2.46243 -5.5,5.5c0,3.03757 2.46243,5.5 5.5,5.5z M905.54904,128.31898c3.03757,0 5.5,-2.46243 5.5,-5.5c0,-3.03757 -2.46243,-5.5 -5.5,-5.5c-3.03757,0 -5.5,2.46243 -5.5,5.5c0,3.03757 2.46243,5.5 5.5,5.5z M1125.83302,101.13797c3.03757,0 5.5,-2.46243 5.5,-5.5c0,-3.03757 -2.46243,-5.5 -5.5,-5.5c-3.03757,0 -5.5,2.46243 -5.5,5.5c0,3.03757 2.46243,5.5 5.5,5.5z M1172.91193,128.31898c3.03757,0 5.5,-2.46243 5.5,-5.5c0,-3.03757 -2.46243,-5.5 -5.5,-5.5c-3.03757,0 -5.5,2.46243 -5.5,5.5c0,3.03757 2.46243,5.5 5.5,5.5z M1172.91193,182.68102c3.03757,0 5.5,-2.46243 5.5,-5.5c0,-3.03757 -2.46243,-5.5 -5.5,-5.5c-3.03757,0 -5.5,2.46243 -5.5,5.5c0,3.03757 2.46243,5.5 5.5,5.5z M1125.83302,209.86203c3.03757,0 5.5,-2.46243 5.5,-5.5c0,-3.03757 -2.46243,-5.5 -5.5,-5.5c-3.03757,0 -5.5,2.46243 -5.5,5.5c0,3.03757 2.46243,5.5 5.5,5.5z M1078.75412,182.68102c3.03757,0 5.5,-2.46243 5.5,-5.5c0,-3.03757 -2.46243,-5.5 -5.5,-5.5c-3.03757,0 -5.5,2.46243 -5.5,5.5c0,3.03757 2.46243,5.5 5.5,5.5z M1078.75412,128.31898c3.03757,0 5.5,-2.46243 5.5,-5.5c0,-3.03757 -2.46243,-5.5 -5.5,-5.5c-3.03757,0 -5.5,2.46243 -5.5,5.5c0,3.03757 2.46243,5.5 5.5,5.5z M1299.03811,101.13797c3.03757,0 5.5,-2.46243 5.5,-5.5c0,-3.03757 -2.46243,-5.5 -5.5,-5.5c-3.03757,0 -5.5,2.46243 -5.5,5.5c0,3.03757 2.46243,5.5 5.5,5.5z M1346.11701,128.31898c3.03757,0 5.5,-2.46243 5.5,-5.5c0,-3.03757 -2.46243,-5.5 -5.5,-5.5c-3.03757,0 -5.5,2.46243 -5.5,5.5c0,3.03757 2.46243,5.5 5.5,5.5z M1346.11701,182.68102c3.03757,0 5.5,-2.46243 5.5,-5.5c0,-3.03757 -2.46243,-5.5 -5.5,-5.5c-3.03757,0 -5.5,2.46243 -5.5,5.5c0,3.03757 2.46243,5.5 5.5,5.5z M1299.03811,209.86203c3.03757,0 5.5,-2.46243 5.5,-5.5c0,-3.03757 -2.46243,-5.5 -5.5,-5.5c-3.03757,0 -5.5,2.46243 -5.5,5.5c0,3.03757 2.46243,5.5 5.5,5.5z M1251.9592,182.68102c3.03757,0 5.5,-2.46243 5.5,-5.5c0,-3.03757 -2.46243,-5.5 -5.5,-5.5c-3.03757,0 -5.5,2.46243 -5.5,5.5c0,3.03757 2.46243,5.5 5.5,5.5z M1251.9592,128.31898c3.03757,0 5.5,-2.46243 5.5,-5.5c0,-3.03757 -2.46243,-5.5 -5.5,-5.5c-3.03757,0 -5.5,2.46243 -5.5,5.5c0,3.03757 2.46243,5.5 5.5,5.5z M0,251.13797c3.03757,0 5.5,-2.46243 5.5,-5.5c0,-3.03757 -2.46243,-5.5 -5.5,-5.5c-3.03757,0 -5.5,2.46243 -5.5,5.5c0,3.03757 2.46243,5.5 5.5,5.5z M47.0789,278.31898c3.03757,0 5.5,-2.46243 5.5,-5.5c0,-3.03757 -2.46243,-5.5 -5.5,-5.5c-3.03757,0 -5.5,2.46243 -5.5,5.5c0,3.03757 2.46243,5.5 5.5,5.5z M47.0789,332.68102c3.03757,0 5.5,-2.46243 5.5,-5.5c0,-3.03757 -2.46243,-5.5 -5.5,-5.5c-3.03757,0 -5.5,2.46243 -5.5,5.5c0,3.03757 2.46243,5.5 5.5,5.5z M0,359.86203c3.03757,0 5.5,-2.46243 5.5,-5.5c0,-3.03757 -2.46243,-5.5 -5.5,-5.5c-3.03757,0 -5.5,2.46243 -5.5,5.5c0,3.03757 2.46243,5.5 5.5,5.5z M-47.0789,332.68102c3.03757,0 5.5,-2.46243 5.5,-5.5c0,-3.03757 -2.46243,-5.5 -5.5,-5.5c-3.03757,0 -5.5,2.46243 -5.5,5.5c0,3.03757 2.46243,5.5 5.5,5.5z M-47.0789,278.31898c3.03757,0 5.5,-2.46243 5.5,-5.5c0,-3.03757 -2.46243,-5.5 -5.5,-5.5c-3.03757,0 -5.5,2.46243 -5.5,5.5c0,3.03757 2.46243,5.5 5.5,5.5z M173.20508,251.13797c3.03757,0 5.5,-2.46243 5.5,-5.5c0,-3.03757 -2.46243,-5.5 -5.5,-5.5c-3.03757,0 -5.5,2.46243 -5.5,5.5c0,3.03757 2.46243,5.5 5.5,5.5z M220.28398,278.31898c3.03757,0 5.5,-2.46243 5.5,-5.5c0,-3.03757 -2.46243,-5.5 -5.5,-5.5c-3.03757,0 -5.5,2.46243 -5.5,5.5c0,3.03757 2.46243,5.5 5.5,5.5z M220.28398,332.68102c3.03757,0 5.5,-2.46243 5.5,-5.5c0,-3.03757 -2.46243,-5.5 -5.5,-5.5c-3.03757,0 -5.5,2.46243 -5.5,5.5c0,3.03757 2.46243,5.5 5.5,5.5z M173.20508,359.86203c3.03757,0 5.5,-2.46243 5.5,-5.5c0,-3.03757 -2.46243,-5.5 -5.5,-5.5c-3.03757,0 -5.5,2.46243 -5.5,5.5c0,3.03757 2.46243,5.5 5.5,5.5z M126.12618,332.68102c3.03757,0 5.5,-2.46243 5.5,-5.5c0,-3.03757 -2.46243,-5.5 -5.5,-5.5c-3.03757,0 -5.5,2.46243 -5.5,5.5c0,3.03757 2.46243,5.5 5.5,5.5z M126.12618,278.31898c3.03757,0 5.5,-2.46243 5.5,-5.5c0,-3.03757 -2.46243,-5.5 -5.5,-5.5c-3.03757,0 -5.5,2.46243 -5.5,5.5c0,3.03757 2.46243,5.5 5.5,5.5z M346.41016,251.13797c3.03757,0 5.5,-2.46243 5.5,-5.5c0,-3.03757 -2.46243,-5.5 -5.5,-5.5c-3.03757,0 -5.5,2.46243 -5.5,5.5c0,3.03757 2.46243,5.5 5.5,5.5z M393.48906,278.31898c3.03757,0 5.5,-2.46243 5.5,-5.5c0,-3.03757 -2.46243,-5.5 -5.5,-5.5c-3.03757,0 -5.5,2.46243 -5.5,5.5c0,3.03757 2.46243,5.5 5.5,5.5z M393.48906,332.68102c3.03757,0 5.5,-2.46243 5.5,-5.5c0,-3.03757 -2.46243,-5.5 -5.5,-5.5c-3.03757,0 -5.5,2.46243 -5.5,5.5c0,3.03757 2.46243,5.5 5.5,5.5z M346.41016,359.86203c3.03757,0 5.5,-2.46243 5.5,-5.5c0,-3.03757 -2.46243,-5.5 -5.5,-5.5c-3.03757,0 -5.5,2.46243 -5.5,5.5c0,3.03757 2.46243,5.5 5.5,5.5z M299.33126,332.68102c3.03757,0 5.5,-2.46243 5.5,-5.5c0,-3.03757 -2.46243,-5.5 -5.5,-5.5c-3.03757,0 -5.5,2.46243 -5.5,5.5c0,3.03757 2.46243,5.5 5.5,5.5z M299.33126,278.31898c3.03757,0 5.5,-2.46243 5.5,-5.5c0,-3.03757 -2.46243,-5.5 -5.5,-5.5c-3.03757,0 -5.5,2.46243 -5.5,5.5c0,3.03757 2.46243,5.5 5.5,5.5z M519.61524,251.13797c3.03757,0 5.5,-2.46243 5.5,-5.5c0,-3.03757 -2.46243,-5.5 -5.5,-5.5c-3.03757,0 -5.5,2.46243 -5.5,5.5c0,3.03757 2.46243,5.5 5.5,5.5z M566.69415,278.31898c3.03757,0 5.5,-2.46243 5.5,-5.5c0,-3.03757 -2.46243,-5.5 -5.5,-5.5c-3.03757,0 -5.5,2.46243 -5.5,5.5c0,3.03757 2.46243,5.5 5.5,5.5z M566.69415,332.68102c3.03757,0 5.5,-2.46243 5.5,-5.5c0,-3.03757 -2.46243,-5.5 -5.5,-5.5c-3.03757,0 -5.5,2.46243 -5.5,5.5c0,3.03757 2.46243,5.5 5.5,5.5z M519.61524,359.86203c3.03757,0 5.5,-2.46243 5.5,-5.5c0,-3.03757 -2.46243,-5.5 -5.5,-5.5c-3.03757,0 -5.5,2.46243 -5.5,5.5c0,3.03757 2.46243,5.5 5.5,5.5z M472.53634,332.68102c3.03757,0 5.5,-2.46243 5.5,-5.5c0,-3.03757 -2.46243,-5.5 -5.5,-5.5c-3.03757,0 -5.5,2.46243 -5.5,5.5c0,3.03757 2.46243,5.5 5.5,5.5z M472.53634,278.31898c3.03757,0 5.5,-2.46243 5.5,-5.5c0,-3.03757 -2.46243,-5.5 -5.5,-5.5c-3.03757,0 -5.5,2.46243 -5.5,5.5c0,3.03757 2.46243,5.5 5.5,5.5z M692.82032,251.13797c3.03757,0 5.5,-2.46243 5.5,-5.5c0,-3.03757 -2.46243,-5.5 -5.5,-5.5c-3.03757,0 -5.5,2.46243 -5.5,5.5c0,3.03757 2.46243,5.5 5.5,5.5z M739.89923,278.31898c3.03757,0 5.5,-2.46243 5.5,-5.5c0,-3.03757 -2.46243,-5.5 -5.5,-5.5c-3.03757,0 -5.5,2.46243 -5.5,5.5c0,3.03757 2.46243,5.5 5.5,5.5z M739.89923,332.68102c3.03757,0 5.5,-2.46243 5.5,-5.5c0,-3.03757 -2.46243,-5.5 -5.5,-5.5c-3.03757,0 -5.5,2.46243 -5.5,5.5c0,3.03757 2.46243,5.5 5.5,5.5z M692.82032,359.86203c3.03757,0 5.5,-2.46243 5.5,-5.5c0,-3.03757 -2.46243,-5.5 -5.5,-5.5c-3.03757,0 -5.5,2.46243 -5.5,5.5c0,3.03757 2.46243,5.5 5.5,5.5z M645.74142,332.68102c3.03757,0 5.5,-2.46243 5.5,-5.5c0,-3.03757 -2.46243,-5.5 -5.5,-5.5c-3.03757,0 -5.5,2.46243 -5.5,5.5c0,3.03757 2.46243,5.5 5.5,5.5z M645.74142,278.31898c3.03757,0 5.5,-2.46243 5.5,-5.5c0,-3.03757 -2.46243,-5.5 -5.5,-5.5c-3.03757,0 -5.5,2.46243 -5.5,5.5c0,3.03757 2.46243,5.5 5.5,5.5z M866.0254,251.13797c3.03757,0 5.5,-2.46243 5.5,-5.5c0,-3.03757 -2.46243,-5.5 -5.5,-5.5c-3.03757,0 -5.5,2.46243 -5.5,5.5c0,3.03757 2.46243,5.5 5.5,5.5z M913.10431,278.31898c3.03757,0 5.5,-2.46243 5.5,-5.5c0,-3.03757 -2.46243,-5.5 -5.5,-5.5c-3.03757,0 -5.5,2.46243 -5.5,5.5c0,3.03757 2.46243,5.5 5.5,5.5z M913.10431,332.68102c3.03757,0 5.5,-2.46243 5.5,-5.5c0,-3.03757 -2.46243,-5.5 -5.5,-5.5c-3.03757,0 -5.5,2.46243 -5.5,5.5c0,3.03757 2.46243,5.5 5.5,5.5z M866.0254,359.86203c3.03757,0 5.5,-2.46243 5.5,-5.5c0,-3.03757 -2.46243,-5.5 -5.5,-5.5c-3.03757,0 -5.5,2.46243 -5.5,5.5c0,3.03757 2.46243,5.5 5.5,5.5z M818.9465,332.68102c3.03757,0 5.5,-2.46243 5.5,-5.5c0,-3.03757 -2.46243,-5.5 -5.5,-5.5c-3.03757,0 -5.5,2.46243 -5.5,5.5c0,3.03757 2.46243,5.5 5.5,5.5z M818.9465,278.31898c3.03757,0 5.5,-2.46243 5.5,-5.5c0,-3.03757 -2.46243,-5.5 -5.5,-5.5c-3.03757,0 -5.5,2.46243 -5.5,5.5c0,3.03757 2.46243,5.5 5.5,5.5z M1039.23048,251.13797c3.03757,0 5.5,-2.46243 5.5,-5.5c0,-3.03757 -2.46243,-5.5 -5.5,-5.5c-3.03757,0 -5.5,2.46243 -5.5,5.5c0,3.03757 2.46243,5.5 5.5,5.5z M1086.30939,278.31898c3.03757,0 5.5,-2.46243 5.5,-5.5c0,-3.03757 -2.46243,-5.5 -5.5,-5.5c-3.03757,0 -5.5,2.46243 -5.5,5.5c0,3.03757 2.46243,5.5 5.5,5.5z M1086.30939,332.68102c3.03757,0 5.5,-2.46243 5.5,-5.5c0,-3.03757 -2.46243,-5.5 -5.5,-5.5c-3.03757,0 -5.5,2.46243 -5.5,5.5c0,3.03757 2.46243,5.5 5.5,5.5z M1039.23048,359.86203c3.03757,0 5.5,-2.46243 5.5,-5.5c0,-3.03757 -2.46243,-5.5 -5.5,-5.5c-3.03757,0 -5.5,2.46243 -5.5,5.5c0,3.03757 2.46243,5.5 5.5,5.5z M992.15158,332.68102c3.03757,0 5.5,-2.46243 5.5,-5.5c0,-3.03757 -2.46243,-5.5 -5.5,-5.5c-3.03757,0 -5.5,2.46243 -5.5,5.5c0,3.03757 2.46243,5.5 5.5,5.5z M992.15158,278.31898c3.03757,0 5.5,-2.46243 5.5,-5.5c0,-3.03757 -2.46243,-5.5 -5.5,-5.5c-3.03757,0 -5.5,2.46243 -5.5,5.5c0,3.03757 2.46243,5.5 5.5,5.5z M1212.43557,251.13797c3.03757,0 5.5,-2.46243 5.5,-5.5c0,-3.03757 -2.46243,-5.5 -5.5,-5.5c-3.03757,0 -5.5,2.46243 -5.5,5.5c0,3.03757 2.46243,5.5 5.5,5.5z M1259.51447,278.31898c3.03757,0 5.5,-2.46243 5.5,-5.5c0,-3.03757 -2.46243,-5.5 -5.5,-5.5c-3.03757,0 -5.5,2.46243 -5.5,5.5c0,3.03757 2.46243,5.5 5.5,5.5z M1259.51447,332.68102c3.03757,0 5.5,-2.46243 5.5,-5.5c0,-3.03757 -2.46243,-5.5 -5.5,-5.5c-3.03757,0 -5.5,2.46243 -5.5,5.5c0,3.03757 2.46243,5.5 5.5,5.5z M1212.43557,359.86203c3.03757,0 5.5,-2.46243 5.5,-5.5c0,-3.03757 -2.46243,-5.5 -5.5,-5.5c-3.03757,0 -5.5,2.46243 -5.5,5.5c0,3.03757 2.46243,5.5 5.5,5.5z M1165.35666,332.68102c3.03757,0 5.5,-2.46243 5.5,-5.5c0,-3.03757 -2.46243,-5.5 -5.5,-5.5c-3.03757,0 -5.5,2.46243 -5.5,5.5c0,3.03757 2.46243,5.5 5.5,5.5z M1165.35666,278.31898c3.03757,0 5.5,-2.46243 5.5,-5.5c0,-3.03757 -2.46243,-5.5 -5.5,-5.5c-3.03757,0 -5.5,2.46243 -5.5,5.5c0,3.03757 2.46243,5.5 5.5,5.5z M86.60254,401.13797c3.03757,0 5.5,-2.46243 5.5,-5.5c0,-3.03757 -2.46243,-5.5 -5.5,-5.5c-3.03757,0 -5.5,2.46243 -5.5,5.5c0,3.03757 2.46243,5.5 5.5,5.5z M133.68144,428.31898c3.03757,0 5.5,-2.46243 5.5,-5.5c0,-3.03757 -2.46243,-5.5 -5.5,-5.5c-3.03757,0 -5.5,2.46243 -5.5,5.5c0,3.03757 2.46243,5.5 5.5,5.5z M133.68144,482.68102c3.03757,0 5.5,-2.46243 5.5,-5.5c0,-3.03757 -2.46243,-5.5 -5.5,-5.5c-3.03757,0 -5.5,2.46243 -5.5,5.5c0,3.03757 2.46243,5.5 5.5,5.5z M86.60254,509.86203c3.03757,0 5.5,-2.46243 5.5,-5.5c0,-3.03757 -2.46243,-5.5 -5.5,-5.5c-3.03757,0 -5.5,2.46243 -5.5,5.5c0,3.03757 2.46243,5.5 5.5,5.5z M39.52364,482.68102c3.03757,0 5.5,-2.46243 5.5,-5.5c0,-3.03757 -2.46243,-5.5 -5.5,-5.5c-3.03757,0 -5.5,2.46243 -5.5,5.5c0,3.03757 2.46243,5.5 5.5,5.5z M39.52364,428.31898c3.03757,0 5.5,-2.46243 5.5,-5.5c0,-3.03757 -2.46243,-5.5 -5.5,-5.5c-3.03757,0 -5.5,2.46243 -5.5,5.5c0,3.03757 2.46243,5.5 5.5,5.5z M259.80762,401.13797c3.03757,0 5.5,-2.46243 5.5,-5.5c0,-3.03757 -2.46243,-5.5 -5.5,-5.5c-3.03757,0 -5.5,2.46243 -5.5,5.5c0,3.03757 2.46243,5.5 5.5,5.5z M306.88652,428.31898c3.03757,0 5.5,-2.46243 5.5,-5.5c0,-3.03757 -2.46243,-5.5 -5.5,-5.5c-3.03757,0 -5.5,2.46243 -5.5,5.5c0,3.03757 2.46243,5.5 5.5,5.5z M306.88652,482.68102c3.03757,0 5.5,-2.46243 5.5,-5.5c0,-3.03757 -2.46243,-5.5 -5.5,-5.5c-3.03757,0 -5.5,2.46243 -5.5,5.5c0,3.03757 2.46243,5.5 5.5,5.5z M259.80762,509.86203c3.03757,0 5.5,-2.46243 5.5,-5.5c0,-3.03757 -2.46243,-5.5 -5.5,-5.5c-3.03757,0 -5.5,2.46243 -5.5,5.5c0,3.03757 2.46243,5.5 5.5,5.5z M212.72872,482.68102c3.03757,0 5.5,-2.46243 5.5,-5.5c0,-3.03757 -2.46243,-5.5 -5.5,-5.5c-3.03757,0 -5.5,2.46243 -5.5,5.5c0,3.03757 2.46243,5.5 5.5,5.5z M212.72872,428.31898c3.03757,0 5.5,-2.46243 5.5,-5.5c0,-3.03757 -2.46243,-5.5 -5.5,-5.5c-3.03757,0 -5.5,2.46243 -5.5,5.5c0,3.03757 2.46243,5.5 5.5,5.5z M433.0127,401.13797c3.03757,0 5.5,-2.46243 5.5,-5.5c0,-3.03757 -2.46243,-5.5 -5.5,-5.5c-3.03757,0 -5.5,2.46243 -5.5,5.5c0,3.03757 2.46243,5.5 5.5,5.5z M480.09161,428.31898c3.03757,0 5.5,-2.46243 5.5,-5.5c0,-3.03757 -2.46243,-5.5 -5.5,-5.5c-3.03757,0 -5.5,2.46243 -5.5,5.5c0,3.03757 2.46243,5.5 5.5,5.5z M480.09161,482.68102c3.03757,0 5.5,-2.46243 5.5,-5.5c0,-3.03757 -2.46243,-5.5 -5.5,-5.5c-3.03757,0 -5.5,2.46243 -5.5,5.5c0,3.03757 2.46243,5.5 5.5,5.5z M433.0127,509.86203c3.03757,0 5.5,-2.46243 5.5,-5.5c0,-3.03757 -2.46243,-5.5 -5.5,-5.5c-3.03757,0 -5.5,2.46243 -5.5,5.5c0,3.03757 2.46243,5.5 5.5,5.5z M385.9338,482.68102c3.03757,0 5.5,-2.46243 5.5,-5.5c0,-3.03757 -2.46243,-5.5 -5.5,-5.5c-3.03757,0 -5.5,2.46243 -5.5,5.5c0,3.03757 2.46243,5.5 5.5,5.5z M385.9338,428.31898c3.03757,0 5.5,-2.46243 5.5,-5.5c0,-3.03757 -2.46243,-5.5 -5.5,-5.5c-3.03757,0 -5.5,2.46243 -5.5,5.5c0,3.03757 2.46243,5.5 5.5,5.5z M606.21778,401.13797c3.03757,0 5.5,-2.46243 5.5,-5.5c0,-3.03757 -2.46243,-5.5 -5.5,-5.5c-3.03757,0 -5.5,2.46243 -5.5,5.5c0,3.03757 2.46243,5.5 5.5,5.5z M653.29669,428.31898c3.03757,0 5.5,-2.46243 5.5,-5.5c0,-3.03757 -2.46243,-5.5 -5.5,-5.5c-3.03757,0 -5.5,2.46243 -5.5,5.5c0,3.03757 2.46243,5.5 5.5,5.5z M653.29669,482.68102c3.03757,0 5.5,-2.46243 5.5,-5.5c0,-3.03757 -2.46243,-5.5 -5.5,-5.5c-3.03757,0 -5.5,2.46243 -5.5,5.5c0,3.03757 2.46243,5.5 5.5,5.5z M606.21778,509.86203c3.03757,0 5.5,-2.46243 5.5,-5.5c0,-3.03757 -2.46243,-5.5 -5.5,-5.5c-3.03757,0 -5.5,2.46243 -5.5,5.5c0,3.03757 2.46243,5.5 5.5,5.5z M559.13888,482.68102c3.03757,0 5.5,-2.46243 5.5,-5.5c0,-3.03757 -2.46243,-5.5 -5.5,-5.5c-3.03757,0 -5.5,2.46243 -5.5,5.5c0,3.03757 2.46243,5.5 5.5,5.5z M559.13888,428.31898c3.03757,0 5.5,-2.46243 5.5,-5.5c0,-3.03757 -2.46243,-5.5 -5.5,-5.5c-3.03757,0 -5.5,2.46243 -5.5,5.5c0,3.03757 2.46243,5.5 5.5,5.5z M779.42286,401.13797c3.03757,0 5.5,-2.46243 5.5,-5.5c0,-3.03757 -2.46243,-5.5 -5.5,-5.5c-3.03757,0 -5.5,2.46243 -5.5,5.5c0,3.03757 2.46243,5.5 5.5,5.5z M826.50177,428.31898c3.03757,0 5.5,-2.46243 5.5,-5.5c0,-3.03757 -2.46243,-5.5 -5.5,-5.5c-3.03757,0 -5.5,2.46243 -5.5,5.5c0,3.03757 2.46243,5.5 5.5,5.5z M826.50177,482.68102c3.03757,0 5.5,-2.46243 5.5,-5.5c0,-3.03757 -2.46243,-5.5 -5.5,-5.5c-3.03757,0 -5.5,2.46243 -5.5,5.5c0,3.03757 2.46243,5.5 5.5,5.5z M779.42286,509.86203c3.03757,0 5.5,-2.46243 5.5,-5.5c0,-3.03757 -2.46243,-5.5 -5.5,-5.5c-3.03757,0 -5.5,2.46243 -5.5,5.5c0,3.03757 2.46243,5.5 5.5,5.5z M732.34396,482.68102c3.03757,0 5.5,-2.46243 5.5,-5.5c0,-3.03757 -2.46243,-5.5 -5.5,-5.5c-3.03757,0 -5.5,2.46243 -5.5,5.5c0,3.03757 2.46243,5.5 5.5,5.5z M732.34396,428.31898c3.03757,0 5.5,-2.46243 5.5,-5.5c0,-3.03757 -2.46243,-5.5 -5.5,-5.5c-3.03757,0 -5.5,2.46243 -5.5,5.5c0,3.03757 2.46243,5.5 5.5,5.5z M952.62794,401.13797c3.03757,0 5.5,-2.46243 5.5,-5.5c0,-3.03757 -2.46243,-5.5 -5.5,-5.5c-3.03757,0 -5.5,2.46243 -5.5,5.5c0,3.03757 2.46243,5.5 5.5,5.5z M999.70685,428.31898c3.03757,0 5.5,-2.46243 5.5,-5.5c0,-3.03757 -2.46243,-5.5 -5.5,-5.5c-3.03757,0 -5.5,2.46243 -5.5,5.5c0,3.03757 2.46243,5.5 5.5,5.5z M999.70685,482.68102c3.03757,0 5.5,-2.46243 5.5,-5.5c0,-3.03757 -2.46243,-5.5 -5.5,-5.5c-3.03757,0 -5.5,2.46243 -5.5,5.5c0,3.03757 2.46243,5.5 5.5,5.5z M952.62794,509.86203c3.03757,0 5.5,-2.46243 5.5,-5.5c0,-3.03757 -2.46243,-5.5 -5.5,-5.5c-3.03757,0 -5.5,2.46243 -5.5,5.5c0,3.03757 2.46243,5.5 5.5,5.5z M905.54904,482.68102c3.03757,0 5.5,-2.46243 5.5,-5.5c0,-3.03757 -2.46243,-5.5 -5.5,-5.5c-3.03757,0 -5.5,2.46243 -5.5,5.5c0,3.03757 2.46243,5.5 5.5,5.5z M905.54904,428.31898c3.03757,0 5.5,-2.46243 5.5,-5.5c0,-3.03757 -2.46243,-5.5 -5.5,-5.5c-3.03757,0 -5.5,2.46243 -5.5,5.5c0,3.03757 2.46243,5.5 5.5,5.5z M1125.83302,401.13797c3.03757,0 5.5,-2.46243 5.5,-5.5c0,-3.03757 -2.46243,-5.5 -5.5,-5.5c-3.03757,0 -5.5,2.46243 -5.5,5.5c0,3.03757 2.46243,5.5 5.5,5.5z M1172.91193,428.31898c3.03757,0 5.5,-2.46243 5.5,-5.5c0,-3.03757 -2.46243,-5.5 -5.5,-5.5c-3.03757,0 -5.5,2.46243 -5.5,5.5c0,3.03757 2.46243,5.5 5.5,5.5z M1172.91193,482.68102c3.03757,0 5.5,-2.46243 5.5,-5.5c0,-3.03757 -2.46243,-5.5 -5.5,-5.5c-3.03757,0 -5.5,2.46243 -5.5,5.5c0,3.03757 2.46243,5.5 5.5,5.5z M1125.83302,509.86203c3.03757,0 5.5,-2.46243 5.5,-5.5c0,-3.03757 -2.46243,-5.5 -5.5,-5.5c-3.03757,0 -5.5,2.46243 -5.5,5.5c0,3.03757 2.46243,5.5 5.5,5.5z M1078.75412,482.68102c3.03757,0 5.5,-2.46243 5.5,-5.5c0,-3.03757 -2.46243,-5.5 -5.5,-5.5c-3.03757,0 -5.5,2.46243 -5.5,5.5c0,3.03757 2.46243,5.5 5.5,5.5z M1078.75412,428.31898c3.03757,0 5.5,-2.46243 5.5,-5.5c0,-3.03757 -2.46243,-5.5 -5.5,-5.5c-3.03757,0 -5.5,2.46243 -5.5,5.5c0,3.03757 2.46243,5.5 5.5,5.5z M1299.03811,401.13797c3.03757,0 5.5,-2.46243 5.5,-5.5c0,-3.03757 -2.46243,-5.5 -5.5,-5.5c-3.03757,0 -5.5,2.46243 -5.5,5.5c0,3.03757 2.46243,5.5 5.5,5.5z M1346.11701,428.31898c3.03757,0 5.5,-2.46243 5.5,-5.5c0,-3.03757 -2.46243,-5.5 -5.5,-5.5c-3.03757,0 -5.5,2.46243 -5.5,5.5c0,3.03757 2.46243,5.5 5.5,5.5z M1346.11701,482.68102c3.03757,0 5.5,-2.46243 5.5,-5.5c0,-3.03757 -2.46243,-5.5 -5.5,-5.5c-3.03757,0 -5.5,2.46243 -5.5,5.5c0,3.03757 2.46243,5.5 5.5,5.5z M1299.03811,509.86203c3.03757,0 5.5,-2.46243 5.5,-5.5c0,-3.03757 -2.46243,-5.5 -5.5,-5.5c-3.03757,0 -5.5,2.46243 -5.5,5.5c0,3.03757 2.46243,5.5 5.5,5.5z M1251.9592,482.68102c3.03757,0 5.5,-2.46243 5.5,-5.5c0,-3.03757 -2.46243,-5.5 -5.5,-5.5c-3.03757,0 -5.5,2.46243 -5.5,5.5c0,3.03757 2.46243,5.5 5.5,5.5z M1251.9592,428.31898c3.03757,0 5.5,-2.46243 5.5,-5.5c0,-3.03757 -2.46243,-5.5 -5.5,-5.5c-3.03757,0 -5.5,2.46243 -5.5,5.5c0,3.03757 2.46243,5.5 5.5,5.5z M0,551.13797c3.03757,0 5.5,-2.46243 5.5,-5.5c0,-3.03757 -2.46243,-5.5 -5.5,-5.5c-3.03757,0 -5.5,2.46243 -5.5,5.5c0,3.03757 2.46243,5.5 5.5,5.5z M47.0789,578.31898c3.03757,0 5.5,-2.46243 5.5,-5.5c0,-3.03757 -2.46243,-5.5 -5.5,-5.5c-3.03757,0 -5.5,2.46243 -5.5,5.5c0,3.03757 2.46243,5.5 5.5,5.5z M47.0789,632.68102c3.03757,0 5.5,-2.46243 5.5,-5.5c0,-3.03757 -2.46243,-5.5 -5.5,-5.5c-3.03757,0 -5.5,2.46243 -5.5,5.5c0,3.03757 2.46243,5.5 5.5,5.5z M0,659.86203c3.03757,0 5.5,-2.46243 5.5,-5.5c0,-3.03757 -2.46243,-5.5 -5.5,-5.5c-3.03757,0 -5.5,2.46243 -5.5,5.5c0,3.03757 2.46243,5.5 5.5,5.5z M-47.0789,632.68102c3.03757,0 5.5,-2.46243 5.5,-5.5c0,-3.03757 -2.46243,-5.5 -5.5,-5.5c-3.03757,0 -5.5,2.46243 -5.5,5.5c0,3.03757 2.46243,5.5 5.5,5.5z M-47.0789,578.31898c3.03757,0 5.5,-2.46243 5.5,-5.5c0,-3.03757 -2.46243,-5.5 -5.5,-5.5c-3.03757,0 -5.5,2.46243 -5.5,5.5c0,3.03757 2.46243,5.5 5.5,5.5z M173.20508,551.13797c3.03757,0 5.5,-2.46243 5.5,-5.5c0,-3.03757 -2.46243,-5.5 -5.5,-5.5c-3.03757,0 -5.5,2.46243 -5.5,5.5c0,3.03757 2.46243,5.5 5.5,5.5z M220.28398,578.31898c3.03757,0 5.5,-2.46243 5.5,-5.5c0,-3.03757 -2.46243,-5.5 -5.5,-5.5c-3.03757,0 -5.5,2.46243 -5.5,5.5c0,3.03757 2.46243,5.5 5.5,5.5z M220.28398,632.68102c3.03757,0 5.5,-2.46243 5.5,-5.5c0,-3.03757 -2.46243,-5.5 -5.5,-5.5c-3.03757,0 -5.5,2.46243 -5.5,5.5c0,3.03757 2.46243,5.5 5.5,5.5z M173.20508,659.86203c3.03757,0 5.5,-2.46243 5.5,-5.5c0,-3.03757 -2.46243,-5.5 -5.5,-5.5c-3.03757,0 -5.5,2.46243 -5.5,5.5c0,3.03757 2.46243,5.5 5.5,5.5z M126.12618,632.68102c3.03757,0 5.5,-2.46243 5.5,-5.5c0,-3.03757 -2.46243,-5.5 -5.5,-5.5c-3.03757,0 -5.5,2.46243 -5.5,5.5c0,3.03757 2.46243,5.5 5.5,5.5z M126.12618,578.31898c3.03757,0 5.5,-2.46243 5.5,-5.5c0,-3.03757 -2.46243,-5.5 -5.5,-5.5c-3.03757,0 -5.5,2.46243 -5.5,5.5c0,3.03757 2.46243,5.5 5.5,5.5z M346.41016,551.13797c3.03757,0 5.5,-2.46243 5.5,-5.5c0,-3.03757 -2.46243,-5.5 -5.5,-5.5c-3.03757,0 -5.5,2.46243 -5.5,5.5c0,3.03757 2.46243,5.5 5.5,5.5z M393.48906,578.31898c3.03757,0 5.5,-2.46243 5.5,-5.5c0,-3.03757 -2.46243,-5.5 -5.5,-5.5c-3.03757,0 -5.5,2.46243 -5.5,5.5c0,3.03757 2.46243,5.5 5.5,5.5z M393.48906,632.68102c3.03757,0 5.5,-2.46243 5.5,-5.5c0,-3.03757 -2.46243,-5.5 -5.5,-5.5c-3.03757,0 -5.5,2.46243 -5.5,5.5c0,3.03757 2.46243,5.5 5.5,5.5z M346.41016,659.86203c3.03757,0 5.5,-2.46243 5.5,-5.5c0,-3.03757 -2.46243,-5.5 -5.5,-5.5c-3.03757,0 -5.5,2.46243 -5.5,5.5c0,3.03757 2.46243,5.5 5.5,5.5z M299.33126,632.68102c3.03757,0 5.5,-2.46243 5.5,-5.5c0,-3.03757 -2.46243,-5.5 -5.5,-5.5c-3.03757,0 -5.5,2.46243 -5.5,5.5c0,3.03757 2.46243,5.5 5.5,5.5z M299.33126,578.31898c3.03757,0 5.5,-2.46243 5.5,-5.5c0,-3.03757 -2.46243,-5.5 -5.5,-5.5c-3.03757,0 -5.5,2.46243 -5.5,5.5c0,3.03757 2.46243,5.5 5.5,5.5z M519.61524,551.13797c3.03757,0 5.5,-2.46243 5.5,-5.5c0,-3.03757 -2.46243,-5.5 -5.5,-5.5c-3.03757,0 -5.5,2.46243 -5.5,5.5c0,3.03757 2.46243,5.5 5.5,5.5z M566.69415,578.31898c3.03757,0 5.5,-2.46243 5.5,-5.5c0,-3.03757 -2.46243,-5.5 -5.5,-5.5c-3.03757,0 -5.5,2.46243 -5.5,5.5c0,3.03757 2.46243,5.5 5.5,5.5z M566.69415,632.68102c3.03757,0 5.5,-2.46243 5.5,-5.5c0,-3.03757 -2.46243,-5.5 -5.5,-5.5c-3.03757,0 -5.5,2.46243 -5.5,5.5c0,3.03757 2.46243,5.5 5.5,5.5z M519.61524,659.86203c3.03757,0 5.5,-2.46243 5.5,-5.5c0,-3.03757 -2.46243,-5.5 -5.5,-5.5c-3.03757,0 -5.5,2.46243 -5.5,5.5c0,3.03757 2.46243,5.5 5.5,5.5z M472.53634,632.68102c3.03757,0 5.5,-2.46243 5.5,-5.5c0,-3.03757 -2.46243,-5.5 -5.5,-5.5c-3.03757,0 -5.5,2.46243 -5.5,5.5c0,3.03757 2.46243,5.5 5.5,5.5z M472.53634,578.31898c3.03757,0 5.5,-2.46243 5.5,-5.5c0,-3.03757 -2.46243,-5.5 -5.5,-5.5c-3.03757,0 -5.5,2.46243 -5.5,5.5c0,3.03757 2.46243,5.5 5.5,5.5z M692.82032,551.13797c3.03757,0 5.5,-2.46243 5.5,-5.5c0,-3.03757 -2.46243,-5.5 -5.5,-5.5c-3.03757,0 -5.5,2.46243 -5.5,5.5c0,3.03757 2.46243,5.5 5.5,5.5z M739.89923,578.31898c3.03757,0 5.5,-2.46243 5.5,-5.5c0,-3.03757 -2.46243,-5.5 -5.5,-5.5c-3.03757,0 -5.5,2.46243 -5.5,5.5c0,3.03757 2.46243,5.5 5.5,5.5z M739.89923,632.68102c3.03757,0 5.5,-2.46243 5.5,-5.5c0,-3.03757 -2.46243,-5.5 -5.5,-5.5c-3.03757,0 -5.5,2.46243 -5.5,5.5c0,3.03757 2.46243,5.5 5.5,5.5z M692.82032,659.86203c3.03757,0 5.5,-2.46243 5.5,-5.5c0,-3.03757 -2.46243,-5.5 -5.5,-5.5c-3.03757,0 -5.5,2.46243 -5.5,5.5c0,3.03757 2.46243,5.5 5.5,5.5z M645.74142,632.68102c3.03757,0 5.5,-2.46243 5.5,-5.5c0,-3.03757 -2.46243,-5.5 -5.5,-5.5c-3.03757,0 -5.5,2.46243 -5.5,5.5c0,3.03757 2.46243,5.5 5.5,5.5z M645.74142,578.31898c3.03757,0 5.5,-2.46243 5.5,-5.5c0,-3.03757 -2.46243,-5.5 -5.5,-5.5c-3.03757,0 -5.5,2.46243 -5.5,5.5c0,3.03757 2.46243,5.5 5.5,5.5z M866.0254,551.13797c3.03757,0 5.5,-2.46243 5.5,-5.5c0,-3.03757 -2.46243,-5.5 -5.5,-5.5c-3.03757,0 -5.5,2.46243 -5.5,5.5c0,3.03757 2.46243,5.5 5.5,5.5z M913.10431,578.31898c3.03757,0 5.5,-2.46243 5.5,-5.5c0,-3.03757 -2.46243,-5.5 -5.5,-5.5c-3.03757,0 -5.5,2.46243 -5.5,5.5c0,3.03757 2.46243,5.5 5.5,5.5z M913.10431,632.68102c3.03757,0 5.5,-2.46243 5.5,-5.5c0,-3.03757 -2.46243,-5.5 -5.5,-5.5c-3.03757,0 -5.5,2.46243 -5.5,5.5c0,3.03757 2.46243,5.5 5.5,5.5z M866.0254,659.86203c3.03757,0 5.5,-2.46243 5.5,-5.5c0,-3.03757 -2.46243,-5.5 -5.5,-5.5c-3.03757,0 -5.5,2.46243 -5.5,5.5c0,3.03757 2.46243,5.5 5.5,5.5z M818.9465,632.68102c3.03757,0 5.5,-2.46243 5.5,-5.5c0,-3.03757 -2.46243,-5.5 -5.5,-5.5c-3.03757,0 -5.5,2.46243 -5.5,5.5c0,3.03757 2.46243,5.5 5.5,5.5z M818.9465,578.31898c3.03757,0 5.5,-2.46243 5.5,-5.5c0,-3.03757 -2.46243,-5.5 -5.5,-5.5c-3.03757,0 -5.5,2.46243 -5.5,5.5c0,3.03757 2.46243,5.5 5.5,5.5z M1039.23048,551.13797c3.03757,0 5.5,-2.46243 5.5,-5.5c0,-3.03757 -2.46243,-5.5 -5.5,-5.5c-3.03757,0 -5.5,2.46243 -5.5,5.5c0,3.03757 2.46243,5.5 5.5,5.5z M1086.30939,578.31898c3.03757,0 5.5,-2.46243 5.5,-5.5c0,-3.03757 -2.46243,-5.5 -5.5,-5.5c-3.03757,0 -5.5,2.46243 -5.5,5.5c0,3.03757 2.46243,5.5 5.5,5.5z M1086.30939,632.68102c3.03757,0 5.5,-2.46243 5.5,-5.5c0,-3.03757 -2.46243,-5.5 -5.5,-5.5c-3.03757,0 -5.5,2.46243 -5.5,5.5c0,3.03757 2.46243,5.5 5.5,5.5z M1039.23048,659.86203c3.03757,0 5.5,-2.46243 5.5,-5.5c0,-3.03757 -2.46243,-5.5 -5.5,-5.5c-3.03757,0 -5.5,2.46243 -5.5,5.5c0,3.03757 2.46243,5.5 5.5,5.5z M992.15158,632.68102c3.03757,0 5.5,-2.46243 5.5,-5.5c0,-3.03757 -2.46243,-5.5 -5.5,-5.5c-3.03757,0 -5.5,2.46243 -5.5,5.5c0,3.03757 2.46243,5.5 5.5,5.5z M992.15158,578.31898c3.03757,0 5.5,-2.46243 5.5,-5.5c0,-3.03757 -2.46243,-5.5 -5.5,-5.5c-3.03757,0 -5.5,2.46243 -5.5,5.5c0,3.03757 2.46243,5.5 5.5,5.5z M1212.43557,551.13797c3.03757,0 5.5,-2.46243 5.5,-5.5c0,-3.03757 -2.46243,-5.5 -5.5,-5.5c-3.03757,0 -5.5,2.46243 -5.5,5.5c0,3.03757 2.46243,5.5 5.5,5.5z M1259.51447,578.31898c3.03757,0 5.5,-2.46243 5.5,-5.5c0,-3.03757 -2.46243,-5.5 -5.5,-5.5c-3.03757,0 -5.5,2.46243 -5.5,5.5c0,3.03757 2.46243,5.5 5.5,5.5z M1259.51447,632.68102c3.03757,0 5.5,-2.46243 5.5,-5.5c0,-3.03757 -2.46243,-5.5 -5.5,-5.5c-3.03757,0 -5.5,2.46243 -5.5,5.5c0,3.03757 2.46243,5.5 5.5,5.5z M1212.43557,659.86203c3.03757,0 5.5,-2.46243 5.5,-5.5c0,-3.03757 -2.46243,-5.5 -5.5,-5.5c-3.03757,0 -5.5,2.46243 -5.5,5.5c0,3.03757 2.46243,5.5 5.5,5.5z M1165.35666,632.68102c3.03757,0 5.5,-2.46243 5.5,-5.5c0,-3.03757 -2.46243,-5.5 -5.5,-5.5c-3.03757,0 -5.5,2.46243 -5.5,5.5c0,3.03757 2.46243,5.5 5.5,5.5z M1165.35666,578.31898c3.03757,0 5.5,-2.46243 5.5,-5.5c0,-3.03757 -2.46243,-5.5 -5.5,-5.5c-3.03757,0 -5.5,2.46243 -5.5,5.5c0,3.03757 2.46243,5.5 5.5,5.5z" fill="#f2e1d9" stroke-width="1"/></g></svg>